<?xml version="1.0" encoding="UTF-8"?>
<svg width="950px" height="708px" viewBox="0 0 950 708" version="1.1" xmlns="http://www.w3.org/2000/svg" xmlns:xlink="http://www.w3.org/1999/xlink">
    <title>Group 281</title>
    <defs>
        <polygon id="path-1" points="0 708 950 708 950 0 0 0"></polygon>
        <polygon id="path-3" points="0 708 950 708 950 0 0 0"></polygon>
        <polygon id="path-5" points="0 708 950 708 950 0 0 0"></polygon>
    </defs>
    <g id="Check-Out-Page" stroke="none" stroke-width="1" fill="none" fill-rule="evenodd">
        <g id="01---How-it-works-page" transform="translate(-25.000000, -146.000000)">
            <g id="Group-281" transform="translate(25.000000, 146.000000)">
                <polygon id="Fill-1" fill="#EBEBEB" points="0 622.660129 950 622.660129 950 622.1851 0 622.1851"></polygon>
                <polygon id="Fill-2" fill="#EBEBEB" points="791.8801 653.244382 854.8119 653.244382 854.8119 652.769353 791.8801 652.769353"></polygon>
                <polygon id="Fill-3" fill="#EBEBEB" points="612.8013 658.399395 629.318 658.399395 629.318 657.924366 612.8013 657.924366"></polygon>
                <polygon id="Fill-4" fill="#EBEBEB" points="753.5134 635.599913 789.9782 635.599913 789.9782 635.124884 753.5134 635.124884"></polygon>
                <polygon id="Fill-5" fill="#EBEBEB" points="99.6721 638.792106 181.7388 638.792106 181.7388 638.318978 99.6721 638.318978"></polygon>
                <polygon id="Fill-6" fill="#EBEBEB" points="198.6564 638.792106 210.6891 638.792106 210.6891 638.318978 198.6564 638.318978"></polygon>
                <polygon id="Fill-7" fill="#EBEBEB" points="249.7949 646.814393 427.7793 646.814393 427.7793 646.339364 249.7949 646.339364"></polygon>
                <g id="Group-38">
                    <path d="M83.4385,0.475408807 C77.7195,0.475408807 73.0683,5.12689065 73.0683,10.8462372 L73.0683,526.596388 C73.0683,532.315735 77.7195,536.967217 83.4385,536.967217 L450.3266,536.967217 C456.0418,536.967217 460.6949,532.315735 460.6949,526.596388 L460.6949,10.8462372 C460.6949,5.12689065 456.0418,0.475408807 450.3266,0.475408807 L83.4385,0.475408807 Z M450.3266,537.442245 L83.4385,537.442245 C77.4592,537.442245 72.5933,532.577951 72.5933,526.596388 L72.5933,10.8462372 C72.5933,4.86657488 77.4592,0.000380023027 83.4385,0.000380023027 L450.3266,0.000380023027 C456.304,0.000380023027 461.1699,4.86657488 461.1699,10.8462372 L461.1699,526.596388 C461.1699,532.577951 456.304,537.442245 450.3266,537.442245 L450.3266,537.442245 Z" id="Fill-8" fill="#EBEBEB"></path>
                    <path d="M494.40261,0.475408807 C488.68551,0.475408807 484.03431,5.12689065 484.03431,10.8462372 L484.03431,526.596388 C484.03431,532.315735 488.68551,536.967217 494.40261,536.967217 L861.29071,536.967217 C867.00781,536.967217 871.66091,532.315735 871.66091,526.596388 L871.66091,10.8462372 C871.66091,5.12689065 867.00781,0.475408807 861.29071,0.475408807 L494.40261,0.475408807 Z M861.29071,537.442245 L494.40261,537.442245 C488.42521,537.442245 483.55931,532.577951 483.55931,526.596388 L483.55931,10.8462372 C483.55931,4.86657488 488.42521,0.000380023027 494.40261,0.000380023027 L861.29071,0.000380023027 C867.27001,0.000380023027 872.13591,4.86657488 872.13591,10.8462372 L872.13591,526.596388 C872.13591,532.577951 867.27001,537.442245 861.29071,537.442245 L861.29071,537.442245 Z" id="Fill-10" fill="#EBEBEB"></path>
                    <mask id="mask-2" fill="white">
                        <use xlink:href="#path-1"></use>
                    </mask>
                    <g id="Clip-13"></g>
                    <polygon id="Fill-12" fill="#E6E6E6" mask="url(#mask-2)" points="531.5174 314.695168 843.9648 314.695168 843.9648 37.4284679 531.5174 37.4284679"></polygon>
                    <polygon id="Fill-14" fill="#F0F0F0" mask="url(#mask-2)" points="539.3416 307.244817 835.7416 307.244817 835.7416 45.0289284 539.3416 45.0289284"></polygon>
                    <polygon id="Fill-15" fill="#FFFFFF" mask="url(#mask-2)" points="608.90364 45.0279784 539.34274 306.673832 539.34274 183.728783 576.06974 45.0279784"></polygon>
                    <polygon id="Fill-16" fill="#FFFFFF" mask="url(#mask-2)" points="633.54056 45.0279784 563.36786 307.243867 552.16736 307.243867 622.34006 45.0279784"></polygon>
                    <polygon id="Fill-17" fill="#FFFFFF" mask="url(#mask-2)" points="835.74217 210.488294 835.74217 252.389633 821.54347 307.244057 810.34297 307.244057"></polygon>
                    <polygon id="Fill-18" fill="#E6E6E6" mask="url(#mask-2)" points="637.7274 313.100972 642.7206 313.100972 642.7206 40.3147428 637.7274 40.3147428"></polygon>
                    <polygon id="Fill-19" fill="#E6E6E6" mask="url(#mask-2)" points="734.4887 313.100972 739.4819 313.100972 739.4819 40.3147428 734.4887 40.3147428"></polygon>
                    <polygon id="Fill-20" fill="#F5F5F5" mask="url(#mask-2)" points="99.6721 622.116696 271.9508 622.116696 271.9508 467.612634 99.6721 467.612634"></polygon>
                    <polygon id="Fill-21" fill="#EBEBEB" mask="url(#mask-2)" points="99.6721 622.116696 159.6304 622.116696 159.6304 467.612634 99.6721 467.612634"></polygon>
                    <polygon id="Fill-22" fill="#EBEBEB" mask="url(#mask-2)" points="133.9576 470.799127 306.2363 470.799127 306.2363 316.293165 133.9576 316.293165"></polygon>
                    <polygon id="Fill-23" fill="#E0E0E0" mask="url(#mask-2)" points="133.9557 470.799127 193.914 470.799127 193.914 316.293165 133.9557 316.293165"></polygon>
                    <polygon id="Fill-24" fill="#F5F5F5" mask="url(#mask-2)" points="99.6721 316.756793 271.9508 316.756793 271.9508 162.252731 99.6721 162.252731"></polygon>
                    <polygon id="Fill-25" fill="#EBEBEB" mask="url(#mask-2)" points="99.6721 316.756793 159.6304 316.756793 159.6304 162.252731 99.6721 162.252731"></polygon>
                    <polygon id="Fill-26" fill="#EBEBEB" mask="url(#mask-2)" points="287.1432 622.253504 459.4219 622.253504 459.4219 467.749442 287.1432 467.749442"></polygon>
                    <polygon id="Fill-27" fill="#E0E0E0" mask="url(#mask-2)" points="287.1432 622.253504 347.1015 622.253504 347.1015 467.749442 287.1432 467.749442"></polygon>
                    <polygon id="Fill-28" fill="#F5F5F5" mask="url(#mask-2)" points="306.2287 470.934035 478.5074 470.934035 478.5074 374.161172 306.2287 374.161172"></polygon>
                    <polygon id="Fill-29" fill="#E6E6E6" mask="url(#mask-2)" points="306.2268 470.934035 366.1851 470.934035 366.1851 374.161172 306.2268 374.161172"></polygon>
                    <polygon id="Fill-30" fill="#EBEBEB" mask="url(#mask-2)" points="292.8432 375.795271 404.149 375.795271 404.149 221.291209 292.8432 221.291209"></polygon>
                    <polygon id="Fill-31" fill="#E0E0E0" mask="url(#mask-2)" points="292.8432 375.795271 331.5804 375.795271 331.5804 221.291209 292.8432 221.291209"></polygon>
                    <polygon id="Fill-32" fill="#F5F5F5" mask="url(#mask-2)" points="658.369 622.388413 830.6477 622.388413 830.6477 467.884351 658.369 467.884351"></polygon>
                    <polygon id="Fill-33" fill="#E6E6E6" mask="url(#mask-2)" points="770.6913 622.388413 830.6477 622.388413 830.6477 467.884351 770.6913 467.884351"></polygon>
                    <polygon id="Fill-34" fill="#EBEBEB" mask="url(#mask-2)" points="624.0854 471.067043 796.3641 471.067043 796.3641 345.300323 624.0854 345.300323"></polygon>
                    <polygon id="Fill-35" fill="#E0E0E0" mask="url(#mask-2)" points="736.4058 471.067043 796.3641 471.067043 796.3641 345.300323 736.4058 345.300323"></polygon>
                    <polygon id="Fill-36" fill="#F5F5F5" mask="url(#mask-2)" points="664.5193 345.296523 830.6496 345.296523 830.6496 283.738493 664.5193 283.738493"></polygon>
                    <polygon id="Fill-37" fill="#E6E6E6" mask="url(#mask-2)" points="772.8307 345.296523 830.6477 345.296523 830.6477 283.738493 772.8307 283.738493"></polygon>
                </g>
                <path d="M843.38948,686.484806 C843.38948,698.368126 678.45618,707.99981 475.00038,707.99981 C271.54458,707.99981 106.61128,698.368126 106.61128,686.484806 C106.61128,674.601486 271.54458,664.969803 475.00038,664.969803 C678.45618,664.969803 843.38948,674.601486 843.38948,686.484806" id="Fill-39" fill="#F5F5F5"></path>
                <g id="Group-47" transform="translate(618.447720, 104.511843)">
                    <path d="M61.4878,65.1758492 L8.6032,65.1758492 C3.8513,65.1758492 0,61.3243158 0,56.574028 L0,8.60182121 C0,3.85153338 3.8513,0 8.6032,0 L61.4878,0 C66.2378,0 70.0891,3.85153338 70.0891,8.60182121 L70.0891,56.574028 C70.0891,61.3243158 66.2378,65.1758492 61.4878,65.1758492" id="Fill-41" fill="#487780"></path>
                    <path d="M28.2017,56.8862169 C28.2017,56.8862169 32.6287,78.2910139 62.7931,90.1667335 C62.7931,90.1667335 44.346,78.3803193 45.4974,56.8862169 L28.2017,56.8862169 Z" id="Fill-43" fill="#487780"></path>
                    <polyline id="Stroke-45" stroke="#FFFFFF" stroke-width="5.7" stroke-linecap="round" stroke-linejoin="round" points="19.87894 30.7326522 29.88434 44.6452952 50.21054 20.5290339"></polyline>
                </g>
                <g id="Group-132" transform="translate(550.614680, 170.375003)">
                    <path d="M195.19004,9.11956354 C204.48674,15.7984682 212.87144,27.1972589 206.60904,59.1248935 C200.34474,91.0544282 198.73544,98.6396879 198.73544,98.6396879 L137.95824,91.8068738 C137.95824,91.8068738 135.10824,63.5502617 139.96274,36.9676509 C146.23274,2.63067036 167.98584,-10.4250207 195.19004,9.11956354" id="Fill-48" fill="#263238"></path>
                    <path d="M134.32791,185.506491 C134.32791,185.506491 113.73761,295.268542 108.24281,340.329773 C101.06271,399.119335 71.70961,485.122346 71.70961,485.122346 L83.44591,488.15493 C83.44591,488.15493 124.82791,415.072702 132.89721,349.311617 C165.76911,282.108345 168.42341,199.34883 168.42341,199.34883 L134.32791,185.506491 Z" id="Fill-50" fill="#FFD5BE"></path>
                    <path d="M49.85486,511.726808 C51.75486,510.852755 53.79736,510.334024 55.88356,510.193415 C55.88356,510.193415 63.09976,505.946658 70.25326,489.444158 L78.29596,489.398555 C81.08136,489.430857 83.54756,491.197964 84.47476,493.823923 C84.60586,494.183045 84.68376,494.557368 84.70276,494.937391 C84.62106,496.883109 84.41396,498.817426 84.08526,500.734642 C83.36136,506.750407 79.38276,519.657889 79.38276,519.657889 L78.02046,519.310168 L80.49806,507.30904 C81.32266,503.229493 77.03816,507.170332 75.05076,511.282181 C73.06336,515.39403 70.01386,519.530581 61.13326,517.501258 C50.78206,515.080511 46.60966,513.587021 49.85486,511.726808" id="Fill-52" fill="#263238"></path>
                    <path d="M84.70238,494.030276 C86.22238,490.129339 88.16038,483.169218 88.16038,483.169218 L70.92928,480.761772 C70.92928,480.761772 70.93118,489.240086 67.73728,494.790322 C76.74138,494.725718 84.70238,494.030276 84.70238,494.030276" id="Fill-54" fill="#263238"></path>
                    <path d="M155.71317,183.754775 C155.71317,183.754775 158.26867,295.40174 162.21117,340.626381 C167.34877,399.626856 156.41807,489.844322 156.41807,489.844322 L168.52677,490.383955 C168.52677,490.383955 193.90127,410.320704 188.19177,344.314504 C206.45457,271.762408 191.93287,190.245569 191.93287,190.245569 L155.71317,183.754775 Z" id="Fill-56" fill="#FFD5BE"></path>
                    <path d="M137.56855,515.400871 C139.36215,514.327306 141.33815,513.590061 143.39775,513.225239 C143.39775,513.225239 150.11235,508.222236 155.43995,491.045195 L163.42945,490.129339 C166.20155,489.861423 168.84635,491.351114 170.05095,493.861166 C170.22195,494.203186 170.33785,494.568008 170.39675,494.942331 C170.52785,496.884249 170.53165,498.829967 170.41005,500.773784 C170.34165,506.831352 167.78045,520.094155 167.78045,520.094155 L166.38775,519.894643 L167.55435,507.695904 C167.93245,503.553653 164.10015,507.931518 162.56875,512.235279 C161.03925,516.53714 158.45525,520.981509 149.40365,519.921245 C138.85295,518.632967 134.54565,517.603104 137.56855,515.400871" id="Fill-58" fill="#263238"></path>
                    <path d="M170.29985,494.041297 C171.39045,489.999752 172.56275,482.87052 172.56275,482.87052 L155.17395,482.338487 C155.17395,482.338487 156.09165,490.765498 153.51715,496.631153 C162.46235,495.59179 170.29985,494.041297 170.29985,494.041297" id="Fill-60" fill="#263238"></path>
                    <path d="M129.94613,167.189952 L107.34753,323.425018 C107.34753,323.425018 180.92883,334.83901 210.37883,328.162005 C210.37883,328.162005 217.60263,237.952139 186.86633,172.360165 L129.94613,167.189952 Z" id="Fill-62" fill="#263238"></path>
                    <path d="M61.94228,111.959495 L42.28678,92.5384182 C42.28678,92.5384182 41.60658,87.3359029 39.70468,85.8861151 C37.80468,84.4363272 24.31848,79.5454309 22.67118,80.6322967 C21.02388,81.7172625 18.72868,92.6163229 21.03528,94.6095437 C23.34188,96.6008643 35.60448,99.1546191 36.86038,98.939906 L58.12328,124.184836 L61.94228,111.959495 Z" id="Fill-64" fill="#FFD5BE"></path>
                    <path d="M132.32037,76.5679505 C123.84257,81.0636229 93.75987,123.122671 89.32717,125.210898 C84.89257,127.299124 51.01937,99.8253597 51.01937,99.8253597 L45.30987,109.56535 C45.30987,109.56535 73.10307,148.833129 88.81607,146.933014 C104.52717,145.032899 134.60987,111.780884 134.60987,111.780884 L132.32037,76.5679505 Z" id="Fill-66" fill="#407BFF"></path>
                    <path d="M132.32037,76.5679505 C123.84257,81.0636229 93.75987,123.122671 89.32717,125.210898 C84.89257,127.299124 51.01937,99.8253597 51.01937,99.8253597 L45.30987,109.56535 C45.30987,109.56535 73.10307,148.833129 88.81607,146.933014 C104.52717,145.032899 134.60987,111.780884 134.60987,111.780884 L132.32037,76.5679505 Z" id="Fill-68" fill="#E9B200"></path>
                    <polygon id="Fill-70" fill="#102462" points="52.88118 100.855792 50.53468 98.6383578 44.35968 109.088991 46.57698 113.36425"></polygon>
                    <path d="M122.5253,124.062658 C129.5553,117.355252 134.6093,111.787915 134.6093,111.787915 L134.0773,103.427408 L131.4363,95.3139163 C131.4363,95.3139163 119.5803,106.239578 122.5253,124.062658" id="Fill-72" fill="#000000"></path>
                    <path d="M129.47683,165.597845 C127.10183,123.76491 128.16393,100.767817 129.24313,89.2721202 C130.43063,77.0182777 132.32113,76.5679505 132.32113,76.5679505 C132.32113,76.5679505 145.59833,75.2720719 157.14843,75.3632775 C166.09173,75.6672959 175.01603,76.6040526 183.81493,78.1697475 C192.16163,79.5549314 200.38483,81.5519525 208.46363,84.1247083 C207.11463,87.9762417 205.88913,91.628263 204.75673,95.0655713 C203.24433,99.599246 201.89533,103.809901 200.67173,107.731739 C198.38793,115.073784 196.60573,121.423968 195.18453,127.111013 C190.74043,144.707979 189.80563,155.971862 188.87083,170.726256 C188.87083,170.726256 203.48563,208.91667 206.33563,236.943368 L157.88563,242.168685 L151.23563,214.141987 L144.58563,243.118742 L117.51063,233.618167 L129.47683,165.597845 Z" id="Fill-74" fill="#407BFF"></path>
                    <path d="M129.47683,165.597845 C127.10183,123.76491 128.16393,100.767817 129.24313,89.2721202 C130.43063,77.0182777 132.32113,76.5679505 132.32113,76.5679505 C132.32113,76.5679505 145.59833,75.2720719 157.14843,75.3632775 C166.09173,75.6672959 175.01603,76.6040526 183.81493,78.1697475 C192.16163,79.5549314 200.38483,81.5519525 208.46363,84.1247083 C207.11463,87.9762417 205.88913,91.628263 204.75673,95.0655713 C203.24433,99.599246 201.89533,103.809901 200.67173,107.731739 C198.38793,115.073784 196.60573,121.423968 195.18453,127.111013 C190.74043,144.707979 189.80563,155.971862 188.87083,170.726256 C188.87083,170.726256 203.48563,208.91667 206.33563,236.943368 L157.88563,242.168685 L151.23563,214.141987 L144.58563,243.118742 L117.51063,233.618167 L129.47683,165.597845 Z" id="Fill-76" fill="#E9B200"></path>
                    <path d="M192.84468,137.343893 C193.49068,134.1517 194.25068,130.750494 195.18168,127.102272 C195.77068,124.784132 196.41668,122.351985 197.13868,119.767828 C195.29568,113.288435 193.39188,118.352242 193.39188,118.352242 C193.39188,118.352242 191.49188,126.190217 192.84468,137.343893" id="Fill-78" fill="#000000"></path>
                    <path d="M157.82369,77.9105718 C158.34619,77.6236544 158.97129,77.3709391 159.63059,77.1353248 C161.00049,76.0541593 162.66299,73.4491015 162.58509,67.1122175 C162.55659,65.0486925 162.36089,62.6070445 161.89729,59.6960681 L179.51409,56.4069688 C179.51409,56.4069688 173.50629,68.2617872 178.52039,77.0669207 C180.24369,77.8326671 181.27159,78.9176328 181.08539,80.3522198 C179.76679,90.5349368 157.88449,100.371833 157.88449,100.371833 C157.88449,100.371833 147.19699,83.7458254 157.82369,77.9105718" id="Fill-80" fill="#FFD5BE"></path>
                    <path d="M161.89653,59.6953081 C162.36013,62.6062845 162.55773,65.0498325 162.58433,67.1133576 C174.48403,67.1133576 179.51333,56.4062088 179.51333,56.4062088 L161.89653,59.6953081 Z" id="Fill-82" fill="#000000"></path>
                    <path d="M171.63574,10.4333031 C156.32174,9.59535237 150.94284,17.5226327 148.95734,33.2441853 C146.47404,52.8913758 150.08024,67.1422393 169.45834,63.9785476 C195.77714,59.6823873 197.06724,11.8260875 171.63574,10.4333031" id="Fill-84" fill="#FFD5BE"></path>
                    <path d="M158.9027,32.9302863 C158.9027,32.9302863 156.5619,36.8141216 154.0995,39.0372564 C154.0995,39.0372564 155.2965,41.193887 158.042,40.9924748 L158.9027,32.9302863 Z" id="Fill-86" fill="#FFB194"></path>
                    <path d="M168.34513,32.1919016 C168.24633,33.4478777 168.84673,34.5195426 169.68463,34.5860466 C170.52253,34.6506506 171.27873,33.6853921 171.37753,32.429416 C171.47633,31.1734399 170.87783,30.1017749 170.03993,30.0352709 C169.20203,29.970667 168.44393,30.9359255 168.34513,32.1919016" id="Fill-88" fill="#263238"></path>
                    <path d="M170.38421,30.1238163 L167.73561,28.8374383 C167.73561,28.8374383 168.91741,31.2429841 170.38421,30.1238163" id="Fill-90" fill="#263238"></path>
                    <path d="M152.74708,30.7073416 C152.64828,31.9652178 153.24868,33.0368828 154.08658,33.1014867 C154.92448,33.1660906 155.68068,32.2027322 155.78138,30.944856 C155.87828,29.6888799 155.27978,28.617215 154.44188,28.5526111 C153.60398,28.486107 152.84588,29.4513655 152.74708,30.7073416" id="Fill-92" fill="#263238"></path>
                    <path d="M154.78635,28.6392563 L152.13775,27.3547785 C152.13775,27.3547785 153.31955,29.7603242 154.78635,28.6392563" id="Fill-94" fill="#263238"></path>
                    <path d="M169.07796,21.6242212 C169.07796,21.6242212 173.41186,21.3012017 175.59306,24.3033836" id="Stroke-96" stroke="#263238" stroke-width="1.3034" stroke-linecap="round" stroke-linejoin="round"></path>
                    <path d="M157.98234,20.3680551 C157.98234,20.3680551 155.33184,19.2184855 151.80924,21.2915111" id="Stroke-98" stroke="#263238" stroke-width="1.3034" stroke-linecap="round" stroke-linejoin="round"></path>
                    <path d="M186.95829,37.1620327 C186.95829,37.1620327 180.48689,24.1861465 182.10379,14.5316615 C182.10379,14.5316615 152.43529,0.470809487 149.25089,31.1937711 C149.25089,31.1937711 147.78409,3.67820383 174.14279,4.51045426 C200.45969,5.34270469 198.27849,43.8523381 184.05509,54.5841884 C184.05509,54.5841884 190.95589,45.2755243 186.95829,37.1620327" id="Fill-100" fill="#263238"></path>
                    <path d="M184.27986,40.2580803 C184.51736,37.7974312 187.28946,33.7634868 191.84756,34.5159324 C196.56526,35.2930795 198.29236,45.1603774 186.36036,46.8552801 C184.64846,47.1003949 183.78396,45.3921914 184.27986,40.2580803" id="Fill-102" fill="#FFD5BE"></path>
                    <path d="M169.99737,44.5565208 C169.99737,44.5565208 166.43487,48.3567511 161.20987,48.1192367" id="Stroke-104" stroke="#263238" stroke-width="1.3034" stroke-linecap="round" stroke-linejoin="round"></path>
                    <path d="M182.10436,14.5322315 C182.10436,14.5322315 148.99496,5.93421053 146.23236,36.968791" id="Stroke-106" stroke="#263238" stroke-width="1.3034" stroke-linecap="round" stroke-linejoin="round"></path>
                    <path d="M152.58292,85.4479485 C152.58292,85.4479485 150.04642,110.605473 154.18082,133.49806 C154.18082,133.49806 163.95252,98.1331172 177.67052,86.1053884 L161.89672,88.360825 L152.58292,85.4479485 Z" id="Fill-108" fill="#407BFF"></path>
                    <path d="M152.58292,85.4479485 C152.58292,85.4479485 150.04642,110.605473 154.18082,133.49806 C154.18082,133.49806 163.95252,98.1331172 177.67052,86.1053884 L161.89672,88.360825 L152.58292,85.4479485 Z" id="Fill-110" fill="#FFFFFF"></path>
                    <path d="M177.89434,74.266151 L161.89634,86.1057684 L161.89634,73.5137054 C161.89634,73.5137054 148.95734,78.2126901 149.87694,92.4958556 L160.49794,87.6087595 L160.49794,92.4958556 L162.98694,87.7968709 L171.38874,97.3810516 C171.38874,97.3810516 181.67344,85.3970254 182.74314,81.7830065 C183.81474,78.1689875 177.89434,74.266151 177.89434,74.266151" id="Fill-112" fill="#102462"></path>
                    <path d="M194.62878,185.261567 L179.91898,115.094115 C179.60168,113.579723 178.26598,112.494757 176.71938,112.494757 L131.38348,112.494757 C129.97178,112.494757 128.90398,113.771635 129.15098,115.162519 L141.40218,183.883983 C141.67388,185.407875 142.97728,186.534644 144.52578,186.578346 L192.34118,187.993932 C193.80798,188.037635 194.92898,186.698054 194.62878,185.261567" id="Fill-114" fill="#263238"></path>
                    <path d="M179.91898,115.094115 C179.60168,113.579723 178.26598,112.494757 176.71938,112.494757 L131.38348,112.494757 C129.97178,112.494757 128.90398,113.771635 129.15098,115.162519 L141.40218,183.883983 C141.67388,185.407875 142.97728,186.534644 144.52578,186.578346 L192.34118,187.993932 C193.80798,188.037635 194.92898,186.698054 194.62878,185.261567 L179.91898,115.094115 Z" id="Fill-116" fill-opacity="0.1" fill="#FFFFFF"></path>
                    <path d="M214.16591,162.53809 L190.79021,147.804597 C190.79021,147.804597 189.00611,142.869998 186.83821,141.864837 C184.67031,140.857776 170.44691,138.984262 169.07321,140.399848 C167.69761,141.815434 167.80211,152.953909 170.48301,154.401797 C173.16581,155.851585 185.69061,155.705276 186.87051,155.226447 L213.06771,175.299263 L214.16591,162.53809 Z" id="Fill-118" fill="#FFD5BE"></path>
                    <path d="M195.41006,125.311794 L215.67546,158.881128 L202.06006,151.913406 L195.88506,163.551611 C195.88506,163.551611 211.56006,187.700174 231.51006,181.999829 C251.46006,176.299484 208.46306,84.1248984 208.46306,84.1248984 C208.46306,84.1248984 193.19276,106.310643 195.41006,125.311794 Z" id="Fill-120" fill="#407BFF"></path>
                    <path d="M195.41006,125.311794 L215.67546,158.881128 L202.06006,151.913406 L195.88506,163.551611 C195.88506,163.551611 211.56006,187.700174 231.51006,181.999829 C251.46006,176.299484 208.46306,84.1248984 208.46306,84.1248984 C208.46306,84.1248984 193.19276,106.310643 195.41006,125.311794 Z" id="Fill-122" fill="#E9B200"></path>
                    <polygon id="Fill-124" fill="#102462" points="203.48487 151.280288 195.72717 165.688861 193.98487 161.573211 200.15987 149.855201"></polygon>
                    <path d="M175.23358,112.494947 C173.45328,112.494947 173.45328,159.23778 173.45328,159.23778 L132.60328,158.052108 C132.60328,158.052108 128.00908,118.539214 132.60328,112.494947 L175.23358,112.494947 Z" id="Fill-126" fill="#FFFFFF"></path>
                    <path d="M175.23358,112.494947 C173.45328,112.494947 173.45328,159.23778 173.45328,159.23778 L132.60328,158.052108 C132.60328,158.052108 128.00908,118.539214 132.60328,112.494947 L175.23358,112.494947 Z" id="Fill-128" fill-opacity="0.1" fill="#000000"></path>
                    <path d="M6.4657,75.4630335 L45.0889,91.7052177 C45.9724,92.0776402 46.379,93.1018023 45.9914,93.9796555 C45.6133,94.8366074 44.6177,95.2318314 43.7532,94.8651091 L4.883,78.3873107 C4.7595,78.3341075 4.6417,78.2657033 4.5334,78.1858985 L0,74.8302952 L5.947,75.3357258 C6.1256,75.3509267 6.3004,75.3927292 6.4657,75.4630335" id="Fill-130" fill="#263238"></path>
                </g>
                <g id="Group-199">
                    <path d="M428.925,325.907368 L391.343,329.25157 L376.295,320.758056 C376.295,320.758056 328.035,293.871427 315.476,285.377912 C311.657,282.774754 308.123,277.112411 305.064,270.462008 C302.48,264.87567 300.238,258.60529 298.452,252.923945 C297.597,250.244783 296.837,247.679628 296.191,245.39949 C294.747,240.326182 293.854,236.525952 293.607,235.49989 L293.607,235.480889 C293.588,235.34788 293.569,235.271876 293.55,235.233874 L293.55,235.214872 L293.645,235.17687 L305.539,231.395641 L315.476,228.24145 C315.476,228.24145 315.932,230.597593 316.711,234.18881 C316.92,235.157869 317.148,236.221933 317.395,237.362003 C317.604,238.274058 317.813,239.243117 318.041,240.250178 C320.549,251.308848 324.406,266.395762 327.199,268.865911 C331.702,272.837152 388.322,311.42849 390.336,312.435551 C392.331,313.442612 410.381,312.435551 410.381,312.435551 L428.925,325.907368 Z" id="Fill-133" fill="#FFD5BE"></path>
                    <path d="M293.38489,181.890041 C310.65969,181.637326 321.66639,235.211072 321.66639,235.211072 L298.88539,246.657366 C298.88539,246.657366 288.61209,230.360078 289.11369,209.75713 C289.61529,189.154181 293.38489,181.890041 293.38489,181.890041" id="Fill-135" fill="#E9B200"></path>
                    <polygon id="Fill-137" fill="#102462" points="324.19681 236.259556 318.04081 240.249798 310.00381 245.456113 298.45181 252.925466 296.38081 254.272647 293.87281 246.653186 296.19081 245.39911 297.71081 244.563059 308.27481 238.80571 316.71081 234.18843 320.92881 231.889291 321.66981 231.490267"></polygon>
                    <path d="M311.03038,254.273597 C311.16338,260.75299 308.57938,266.149317 305.06438,270.462578 C302.48038,264.87624 300.23838,258.60586 298.45238,252.924516 L296.38138,254.273597 L293.87338,246.654136 L296.19138,245.40006 C294.74738,240.326752 293.85438,236.526522 293.60738,235.50046 L293.60738,235.481459 L293.62638,235.424455 L293.64538,235.17744 L296.38138,214.276174 C296.38138,214.276174 301.39738,221.47761 305.53938,231.396211 C306.52738,233.733353 307.45838,236.222503 308.27538,238.80666 C308.56038,239.699714 308.82638,240.611769 309.07338,241.542826 C309.43438,242.834904 309.73838,244.145984 310.00438,245.457063 C310.59338,248.364239 310.97338,251.328419 311.03038,254.273597" id="Fill-139" fill="#000000"></path>
                    <polygon id="Fill-141" fill="#EEC1BB" points="290.79177 673.417715 306.68907 675.097416 309.67397 640.807939 293.77477 639.126337"></polygon>
                    <polygon id="Fill-143" fill="#EEC1BB" points="211.46411 672.259974 226.86741 672.259974 228.14041 636.572012 212.71811 636.572012"></polygon>
                    <path d="M229.00282,670.476716 L210.28782,670.476716 C209.65702,670.478616 209.11172,670.917543 208.97492,671.53508 L205.93682,685.252012 C205.67842,686.481386 206.46312,687.687959 207.69052,687.946375 C207.85582,687.982477 208.02302,687.999578 208.19022,687.997678 C214.24552,687.898872 218.65542,687.526449 226.25922,687.526449 C230.94272,687.526449 245.07302,688.016679 251.54062,688.016679 C258.00632,688.016679 258.84992,681.626592 256.20322,681.041356 C244.32822,678.4515 235.39252,674.867882 231.59062,671.457176 C230.88572,670.809236 229.95852,670.457715 229.00282,670.476716" id="Fill-145" fill="#263238"></path>
                    <path d="M231.11999,672.102075 C232.91739,672.710112 234.88009,672.613206 236.60719,671.826558 C236.97579,671.497838 237.15819,671.007609 237.09739,670.515479 C237.07649,670.220961 236.96059,670.084153 236.86179,670.084153 C236.71739,670.006248 236.55399,669.972046 236.39059,669.987247 C234.51529,670.348269 232.72549,671.066512 231.11999,672.102075 M230.06169,672.613206 C229.91539,672.573303 229.80709,672.449796 229.78619,672.299687 C229.76339,672.155278 229.83369,672.012769 229.96289,671.946265 C230.51199,671.592844 235.48999,668.535559 237.19429,669.417212 C237.58759,669.603423 237.83269,670.004348 237.82129,670.437574 C237.92579,671.178619 237.63509,671.919664 237.05749,672.396593 C236.18919,672.987528 235.14609,673.263045 234.09919,673.17944 C232.73689,673.141438 231.38219,672.949526 230.06169,672.613206" id="Fill-147" fill="#407BFF"></path>
                    <path d="M232.4327,666.693207 C231.3497,668.078391 230.7132,669.759993 230.6106,671.515699 C232.1971,670.318627 234.1579,667.753471 233.9622,666.752111 C233.9413,666.653305 233.9014,666.379688 233.4321,666.379688 L233.2554,666.379688 C232.9533,666.381588 232.6607,666.493695 232.4327,666.693207 M229.9627,672.68997 C229.8525,672.615866 229.7841,672.492358 229.785961,672.35745 C229.8069,672.140837 230.1793,667.711669 231.9615,666.261881 C232.3871,665.889458 232.9514,665.718448 233.51,665.790652 C234.0819,665.790652 234.574,666.191577 234.6861,666.752111 C234.9996,668.380509 231.9235,671.770315 230.3351,672.632967 L230.1603,672.632967 C230.1014,672.670969 230.033,672.691871 229.9627,672.68997" id="Fill-149" fill="#407BFF"></path>
                    <path d="M308.37152,669.986867 L289.65652,669.986867 C289.02572,669.988767 288.48042,670.427693 288.34362,671.045231 L285.30552,684.762162 C285.04712,685.991536 285.83182,687.19811 287.05922,687.456525 C287.22452,687.492627 287.39172,687.509728 287.55892,687.507828 C293.61422,687.409022 298.02412,687.0366 305.62792,687.0366 C310.31142,687.0366 324.44172,687.524929 330.90932,687.524929 C337.37502,687.524929 338.21862,681.136742 335.57192,680.551507 C323.69692,677.96165 314.76122,674.376133 310.95932,670.967326 C310.25442,670.319387 309.32722,669.967866 308.37152,669.986867" id="Fill-151" fill="#263238"></path>
                    <path d="M310.4885,671.612225 C312.2859,672.220262 314.2467,672.123356 315.9757,671.336708 C316.3443,671.007989 316.5267,670.517759 316.4659,670.025629 C316.445,669.731111 316.3291,669.594303 316.2303,669.594303 C316.0859,669.516398 315.9225,669.482196 315.7591,669.497397 C313.8838,669.858419 312.094,670.576662 310.4885,671.612225 M309.4302,672.123356 C309.2839,672.083454 309.1756,671.959946 309.1547,671.809837 C309.1319,671.665428 309.2022,671.52292 309.3333,671.456416 C309.8805,671.102994 314.8585,668.045709 316.5628,668.927362 C316.9561,669.115474 317.2012,669.514498 317.1898,669.947724 C317.2943,670.688769 317.0036,671.429814 316.426,671.906743 C315.5577,672.497679 314.5146,672.773195 313.4677,672.68959 C312.1054,672.651588 310.7507,672.459676 309.4302,672.123356" id="Fill-153" fill="#407BFF"></path>
                    <path d="M311.8014,666.203357 C310.7184,667.588541 310.0819,669.270143 309.9793,671.02395 C311.5658,669.828777 313.5266,667.263622 313.3309,666.262261 C313.31,666.163455 313.2701,665.889838 312.8008,665.889838 L312.6241,665.889838 C312.3201,665.891739 312.0294,666.003845 311.8014,666.203357 M309.3333,672.200121 C309.2212,672.126016 309.1528,672.002509 309.154661,671.865701 C309.1756,671.650987 309.548,667.221819 311.3302,665.772031 C311.7558,665.399609 312.3201,665.228598 312.8787,665.300803 C313.4506,665.298903 313.9427,665.701727 314.0548,666.262261 C314.3683,667.88876 311.2922,671.280465 309.7038,672.141217 L309.529,672.141217 C309.4701,672.18112 309.4017,672.202021 309.3333,672.200121" id="Fill-155" fill="#407BFF"></path>
                    <polygon id="Fill-157" fill="#000000" points="293.77553 639.126717 309.67473 640.808319 308.12243 658.49269 292.22323 656.814889"></polygon>
                    <polygon id="Fill-159" fill="#000000" points="212.7183 636.590063 228.1406 636.590063 227.4756 654.994578 212.0514 654.994578"></polygon>
                    <path d="M219.07798,323.532224 L300.84638,323.532224 C308.61928,365.988396 332.95638,516.2305 315.49538,650.097411 L287.81428,646.663903 C287.81428,646.663903 290.37738,468.951835 265.93768,403.253454 C263.12568,438.411285 259.78738,475.824552 256.88988,495.730158 C249.77628,544.728427 234.54968,651.805615 234.54968,651.805615 L206.36888,651.805615 C206.36888,651.805615 212.12968,549.313405 214.79538,501.158787 C217.70808,448.880919 218.96588,334.267874 219.07798,323.532224" id="Fill-161" fill="#001B44"></path>
                    <path d="M265.94433,403.258205 C269.54863,412.941191 272.54873,425.031624 275.07763,438.632648 C277.36333,407.345352 268.21673,374.161742 268.21673,374.161742 L265.94433,403.258205 Z" id="Fill-163" fill="#000000"></path>
                    <polygon id="Fill-165" fill="#407BFF" points="318.66192 656.544882 284.40112 651.446873 285.44992 641.959598 321.08822 646.637682"></polygon>
                    <polygon id="Fill-167" fill="#FFFFFF" points="318.66192 656.544882 284.40112 651.446873 285.44992 641.959598 321.08822 646.637682"></polygon>
                    <polygon id="Fill-169" fill="#407BFF" points="237.93966 652.034009 204.70296 652.034009 204.70296 642.098307 239.19366 641.452268"></polygon>
                    <polygon id="Fill-171" fill="#FFFFFF" points="237.93966 652.034009 204.70296 652.034009 204.70296 642.098307 239.19366 641.452268"></polygon>
                    <polygon id="Fill-173" fill="#263238" points="218.91192 337.737485 218.84922 325.899767 302.16992 320.758056 302.75702 332.225251"></polygon>
                    <mask id="mask-4" fill="white">
                        <use xlink:href="#path-3"></use>
                    </mask>
                    <g id="Clip-176"></g>
                    <polygon id="Fill-175" fill="#102462" mask="url(#mask-4)" points="236.2479 340.244116 240.0061 340.244116 240.0061 322.896065 236.2479 322.896065"></polygon>
                    <polygon id="Fill-177" fill="#102462" mask="url(#mask-4)" points="297.62189 317.110975 298.88539 334.413423 295.13669 334.68704 293.87319 317.384591"></polygon>
                    <path d="M302.176,320.758056 L218.842,326.971432 C218.937,319.67499 218.652,311.542497 218.101,302.953977 C217.075,287.088016 215.118,269.720963 212.933,253.436977 C208.297,218.83588 202.616,189.13708 202.616,189.13708 C241.376,179.351487 293.379,181.897642 293.379,181.897642 C306.888,232.459705 302.176,320.758056 302.176,320.758056" id="Fill-178" fill="#E9B200" mask="url(#mask-4)"></path>
                    <path d="M258.09125,188.192153 C258.09125,188.192153 269.56915,185.049363 267.15995,181.463845 C260.39785,180.346578 257.12605,177.192387 255.77325,173.154642 C254.99045,170.802299 254.87265,168.157339 255.08735,165.432574 C255.18615,164.001787 255.40085,162.552 255.65545,161.121213 L232.92385,144.286193 C235.90115,155.398066 239.54725,175.839505 232.19805,183.894093 C239.70305,190.713606 258.09125,188.192153 258.09125,188.192153 Z" id="Fill-179" fill="#FFD5BE" mask="url(#mask-4)"></path>
                    <path d="M238.1745,154.986881 C239.077,168.627808 250.287,172.390036 255.7742,173.153882 C254.9895,170.801539 254.8717,168.156579 255.0883,165.433714 L238.1745,154.986881 Z" id="Fill-180" fill="#000000" mask="url(#mask-4)"></path>
                    <path d="M277.40095,111.870609 C282.92045,117.122527 280.62905,133.100595 269.36205,141.26729 C258.09125,149.433985 258.09125,109.90969 258.09125,109.90969 C258.09125,109.90969 273.88595,108.526406 277.40095,111.870609" id="Fill-181" fill="#263238" mask="url(#mask-4)"></path>
                    <path d="M258.77202,165.609855 C263.75002,164.04036 268.23782,160.591651 271.01942,155.63425 C271.39372,154.986311 271.72432,154.30037 272.03782,153.595427 C277.58392,140.621441 279.34902,117.926466 265.63102,109.41965 C255.89162,103.286078 242.99632,106.206555 236.86122,115.965547 C235.09992,118.730214 234.03972,121.884405 233.72622,125.158304 C232.04092,140.326923 230.33662,149.166258 236.64652,158.142402 C242.11282,166.001279 251.03142,168.059103 258.77202,165.609855 Z" id="Fill-182" fill="#FFD5BE" mask="url(#mask-4)"></path>
                    <path d="M255.83861,133.262675 C255.54601,134.461647 256.09891,135.584616 256.91211,135.723324 C257.72721,135.860132 258.52901,134.967078 258.74561,133.749104 C258.96221,132.53113 258.46441,131.421463 257.67021,131.288455 C256.87601,131.155447 256.05901,132.0257 255.83861,133.262675" id="Fill-183" fill="#263238" mask="url(#mask-4)"></path>
                    <path d="M269.6841,135.626798 C269.3915,136.825771 269.9634,137.954439 270.7595,138.087447 C271.5537,138.220455 272.3764,137.331201 272.5911,136.113228 C272.8077,134.895254 272.3099,133.785586 271.5157,133.652578 C270.7215,133.51957 269.8855,134.465828 269.6841,135.626798" id="Fill-184" fill="#263238" mask="url(#mask-4)"></path>
                    <path d="M265.18167,135.478209 C266.00057,139.474151 267.36667,143.335185 269.24387,146.956805 C267.33247,147.884061 265.10947,147.918263 263.16957,147.04991 L265.18167,135.478209 Z" id="Fill-185" fill="#FFB194" mask="url(#mask-4)"></path>
                    <path d="M252.30841,128.045719 C252.56871,128.127424 252.85181,128.06662 253.05321,127.884209 C254.37561,126.58263 256.23381,125.982194 258.06731,126.261511 C258.45681,126.356516 258.85011,126.119002 258.94511,125.731378 C259.04011,125.341855 258.80261,124.950431 258.41501,124.853525 C258.41311,124.853525 258.41311,124.851625 258.41121,124.851625 C256.10271,124.4393 253.73531,125.170845 252.06331,126.816344 C251.76311,127.08236 251.73461,127.540288 252.00061,127.840506 C252.00441,127.844306 252.00821,127.848107 252.01201,127.851907 C252.10131,127.931712 252.20011,127.998216 252.30841,128.045719" id="Fill-186" fill="#263238" mask="url(#mask-4)"></path>
                    <path d="M260.09784,153.053514 L260.09784,153.053514 C256.44984,152.98511 253.06214,151.141998 251.02344,148.115115 C250.91894,147.930804 250.97974,147.695189 251.16024,147.584983 C251.33504,147.474776 251.56494,147.524179 251.67514,147.697089 C251.68084,147.70659 251.68654,147.71419 251.69034,147.721791 C253.63214,150.482658 256.76334,152.16806 260.13774,152.268766 C260.34294,152.268766 260.51014,152.434076 260.51204,152.639289 C260.51204,152.65449 260.51014,152.667791 260.50824,152.681091 C260.51014,152.886304 260.34484,153.053514 260.13774,153.055414 C260.12444,153.055414 260.11114,153.055414 260.09784,153.053514" id="Fill-187" fill="#263238" mask="url(#mask-4)"></path>
                    <path d="M276.44905,131.86913 C276.57445,131.947035 276.72075,131.981237 276.86705,131.971737 C277.25465,131.86533 277.48075,131.466306 277.37435,131.078682 C277.37435,131.074882 277.37245,131.069182 277.37055,131.065382 C276.76635,128.789044 275.09055,126.953533 272.88275,126.138383 C272.49895,126.022476 272.09425,126.239089 271.97835,126.622912 L271.97835,126.622912 C271.87195,127.006736 272.08665,127.40576 272.46285,127.529267 C274.18805,128.222809 275.48385,129.689698 275.95695,131.487207 C276.05575,131.679119 276.23625,131.819727 276.44905,131.86913" id="Fill-188" fill="#263238" mask="url(#mask-4)"></path>
                    <path d="M247.96672,108.277301 L247.96672,115.053111 C245.63542,115.953766 244.01282,118.262406 244.70062,121.015673 C246.17122,126.896529 241.92092,135.217133 237.18992,138.164212 C237.18992,138.164212 237.35142,135.714963 235.22912,136.041783 C233.10682,136.368603 232.12642,149.106975 235.39252,155.639571 C235.39252,155.639571 230.00222,149.433795 228.20672,135.714963 C226.54612,123.027895 227.40302,112.727371 230.51142,108.277301 L247.96672,108.277301 Z" id="Fill-189" fill="#263238" mask="url(#mask-4)"></path>
                    <path d="M232.01717,145.007856 C236.50307,147.417202 239.85467,143.668275 239.55067,138.849583 C239.23907,134.570524 236.57907,128.028428 231.61057,127.652205 C226.64207,127.275982 223.77307,131.824858 225.04987,136.369933 C226.13667,140.058057 228.64277,143.164745 232.01717,145.007856 Z" id="Fill-190" fill="#FFD5BE" mask="url(#mask-4)"></path>
                    <path d="M227.51569,119.732715 C227.51569,119.732715 222.82839,108.470733 235.04919,100.203332 C247.27189,91.9340306 276.51669,101.567614 278.55539,108.276921 C280.59409,114.986227 258.62249,127.23627 227.51569,119.732715" id="Fill-191" fill="#263238" mask="url(#mask-4)"></path>
                    <polygon id="Fill-192" fill="#102462" mask="url(#mask-4)" points="235.06933 176.874497 253.67413 187.057214 256.21253 173.155972 269.24463 181.632386 269.24463 199.385161 255.44683 191.157663 245.75873 205.691644 226.63333 184.67447"></polygon>
                    <path d="M278.0745,335.568313 L263.4464,336.379662 C262.2285,336.446166 261.1854,335.51321 261.1189,334.295236 L260.5717,324.399436 C260.5033,323.181463 261.4362,322.1402 262.6541,322.071795 L277.2822,321.262346 C278.5001,321.193942 279.5432,322.126899 279.6097,323.344873 L280.1588,333.240672 C280.2253,334.460546 279.2924,335.501809 278.0745,335.568313" id="Fill-193" fill="#FFFFFF" mask="url(#mask-4)"></path>
                    <path d="M247.96672,299.276874 C242.43772,307.599378 224.74682,307.546175 218.10062,302.953597 C217.07462,287.087636 215.11762,269.720583 212.93452,253.436597 L247.96672,299.276874 Z" id="Fill-194" fill="#000000" mask="url(#mask-4)"></path>
                    <path d="M218.84979,235.211072 C218.84979,235.211072 222.78089,260.815124 226.63219,265.825727 C230.48539,270.838231 310.15999,314.436373 310.15999,314.436373 L337.71949,312.431751 L350.40199,326.963832 C350.40199,326.963832 313.66739,332.667977 309.65839,331.569711 C305.64939,330.471444 302.58279,328.820244 302.58279,328.820244 C302.58279,328.820244 218.95999,295.895049 211.94329,288.376294 C204.92849,280.859438 196.91049,242.228197 196.91049,242.228197 L218.84979,235.211072 Z" id="Fill-195" fill="#FFD5BE" mask="url(#mask-4)"></path>
                    <path d="M202.62094,189.140691 C217.20914,186.096706 224.74644,246.659076 224.74644,246.659076 L194.90694,254.280438 C194.90694,254.280438 184.66594,192.885818 202.62094,189.140691" id="Fill-196" fill="#E9B200" mask="url(#mask-4)"></path>
                    <path d="M202.62094,189.140691 C217.20914,186.096706 224.74644,246.659076 224.74644,246.659076 L194.90694,254.280438 C194.90694,254.280438 184.66594,192.885818 202.62094,189.140691" id="Fill-197" fill="#E9B200" mask="url(#mask-4)"></path>
                    <polygon id="Fill-198" fill="#102462" mask="url(#mask-4)" points="193.15248 252.796448 226.63238 244.777962 226.63238 250.541011 194.65728 259.811673"></polygon>
                </g>
                <g id="Group-280">
                    <path d="M307.88341,630.993654 L307.88341,370.465068 C307.88341,359.189784 304.42541,348.186218 297.97681,338.938357 L288.88341,325.899767 L450.57151,325.899767 L459.66491,338.938357 C466.11351,348.186218 469.57151,359.189784 469.57151,370.465068 L469.57151,628.4532" id="Stroke-200" stroke="#263238" stroke-width="11.4" stroke-linecap="round" stroke-linejoin="round"></path>
                    <path d="M668.15894,671.278375 C668.15894,662.034315 660.66534,654.538361 651.42184,654.538361 C642.17644,654.538361 634.68284,662.034315 634.68284,671.278375 C634.68284,680.522435 642.17644,688.018389 651.42184,688.018389 C660.66534,688.018389 668.15894,680.522435 668.15894,671.278375" id="Fill-202" fill="#263238"></path>
                    <path d="M659.78982,671.278375 C659.78982,666.655395 656.04302,662.910268 651.42222,662.910268 C646.79952,662.910268 643.05272,666.655395 643.05272,671.278375 C643.05272,675.901355 646.79952,679.646482 651.42222,679.646482 C656.04302,679.646482 659.78982,675.901355 659.78982,671.278375" id="Fill-204" fill="#FFFFFF"></path>
                    <path d="M649.4048,675.015331 L649.4048,675.015331 C646.7315,675.015331 644.3413,673.34513 643.4255,670.833178 L633.5531,643.819241 L655.7717,643.819241 L655.7717,668.648046 C655.7717,672.165159 652.9217,675.015331 649.4048,675.015331" id="Fill-206" fill="#263238"></path>
                    <path d="M649.4048,675.015331 L649.4048,675.015331 C646.7315,675.015331 644.3413,673.34513 643.4255,670.833178 L633.5531,643.819241 L655.7717,643.819241 L655.7717,668.648046 C655.7717,672.165159 652.9217,675.015331 649.4048,675.015331" id="Fill-208" fill-opacity="0.2" fill="#FFFFFF"></path>
                    <path d="M481.95894,671.278375 C481.95894,662.034315 474.46534,654.538361 465.22184,654.538361 C455.97644,654.538361 448.48284,662.034315 448.48284,671.278375 C448.48284,680.522435 455.97644,688.018389 465.22184,688.018389 C474.46534,688.018389 481.95894,680.522435 481.95894,671.278375" id="Fill-210" fill="#263238"></path>
                    <path d="M473.58982,671.278375 C473.58982,666.655395 469.84302,662.910268 465.22222,662.910268 C460.59952,662.910268 456.85272,666.655395 456.85272,671.278375 C456.85272,675.901355 460.59952,679.646482 465.22222,679.646482 C469.84302,679.646482 473.58982,675.901355 473.58982,671.278375" id="Fill-212" fill="#FFFFFF"></path>
                    <path d="M463.2048,675.015331 L463.2048,675.015331 C460.5315,675.015331 458.1413,673.34513 457.2255,670.833178 L447.3531,643.819241 L469.5717,643.819241 L469.5717,668.648046 C469.5717,672.165159 466.7217,675.015331 463.2048,675.015331" id="Fill-214" fill="#263238"></path>
                    <path d="M457.2255,670.833178 L447.3531,643.819241 L469.5717,643.819241 L469.5717,668.648046 C469.5717,672.165159 466.7217,675.015331 463.2048,675.015331 C460.5315,675.015331 458.1413,673.34513 457.2255,670.833178 Z" id="Fill-216" fill-opacity="0.2" fill="#FFFFFF"></path>
                    <path d="M680.2,624.32843 L680.2,640.137388 C680.2,643.082566 677.806,645.476712 674.861,645.476712 L300.694,645.476712 C297.749,645.476712 295.355,643.082566 295.355,640.137388 L295.355,624.32843 L680.2,624.32843 Z" id="Fill-218" fill="#263238"></path>
                    <path d="M680.2,624.32843 L680.2,640.137388 C680.2,643.082566 677.806,645.476712 674.861,645.476712 L300.694,645.476712 C297.749,645.476712 295.355,643.082566 295.355,640.137388 L295.355,624.32843 L680.2,624.32843 Z" id="Fill-220" fill-opacity="0.2" fill="#FFFFFF"></path>
                    <path d="M547.2,624.32843 L547.2,640.137388 C547.2,643.082566 544.806,645.476712 541.861,645.476712 L300.694,645.476712 C297.749,645.476712 295.355,643.082566 295.355,640.137388 L295.355,624.32843 L547.2,624.32843 Z" id="Fill-222" fill-opacity="0.2" fill="#FFFFFF"></path>
                    <path d="M533.25894,671.278375 C533.25894,662.034315 525.76534,654.538361 516.52184,654.538361 C507.27644,654.538361 499.78284,662.034315 499.78284,671.278375 C499.78284,680.522435 507.27644,688.018389 516.52184,688.018389 C525.76534,688.018389 533.25894,680.522435 533.25894,671.278375" id="Fill-224" fill="#263238"></path>
                    <path d="M524.88982,671.278375 C524.88982,666.655395 521.14302,662.910268 516.52222,662.910268 C511.89952,662.910268 508.15272,666.655395 508.15272,671.278375 C508.15272,675.901355 511.89952,679.646482 516.52222,679.646482 C521.14302,679.646482 524.88982,675.901355 524.88982,671.278375" id="Fill-226" fill="#FFFFFF"></path>
                    <path d="M514.5048,675.015331 L514.5048,675.015331 C511.8315,675.015331 509.4413,673.34513 508.5255,670.833178 L498.6531,643.819241 L520.8717,643.819241 L520.8717,668.648046 C520.8717,672.165159 518.0217,675.015331 514.5048,675.015331" id="Fill-228" fill="#263238"></path>
                    <path d="M514.5048,675.015331 L514.5048,675.015331 C511.8315,675.015331 509.4413,673.34513 508.5255,670.833178 L498.6531,643.819241 L520.8717,643.819241 L520.8717,668.648046 C520.8717,672.165159 518.0217,675.015331 514.5048,675.015331" id="Fill-230" fill-opacity="0.4" fill="#FFFFFF"></path>
                    <path d="M347.05894,671.278375 C347.05894,662.034315 339.56534,654.538361 330.32184,654.538361 C321.07644,654.538361 313.58284,662.034315 313.58284,671.278375 C313.58284,680.522435 321.07644,688.018389 330.32184,688.018389 C339.56534,688.018389 347.05894,680.522435 347.05894,671.278375" id="Fill-232" fill="#263238"></path>
                    <path d="M338.68982,671.278375 C338.68982,666.655395 334.94302,662.910268 330.32222,662.910268 C325.69952,662.910268 321.95272,666.655395 321.95272,671.278375 C321.95272,675.901355 325.69952,679.646482 330.32222,679.646482 C334.94302,679.646482 338.68982,675.901355 338.68982,671.278375" id="Fill-234" fill="#FFFFFF"></path>
                    <path d="M328.3048,675.015331 L328.3048,675.015331 C325.6315,675.015331 323.2413,673.34513 322.3255,670.833178 L312.4531,643.819241 L334.6717,643.819241 L334.6717,668.648046 C334.6717,672.165159 331.8217,675.015331 328.3048,675.015331" id="Fill-236" fill="#263238"></path>
                    <path d="M328.3048,675.015331 L328.3048,675.015331 C325.6315,675.015331 323.2413,673.34513 322.3255,670.833178 L312.4531,643.819241 L334.6717,643.819241 L334.6717,668.648046 C334.6717,672.165159 331.8217,675.015331 328.3048,675.015331" id="Fill-238" fill-opacity="0.4" fill="#FFFFFF"></path>
                    <polygon id="Fill-240" fill="#FFFFFF" points="341.6941 624.32843 518.8672 624.32843 518.8672 501.674098 341.6941 501.674098"></polygon>
                    <mask id="mask-6" fill="white">
                        <use xlink:href="#path-5"></use>
                    </mask>
                    <g id="Clip-243"></g>
                    <polygon id="Fill-242" fill="#B39C68" mask="url(#mask-6)" points="341.6941 624.32843 518.8672 624.32843 518.8672 501.674098 341.6941 501.674098"></polygon>
                    <polygon id="Fill-244" fill-opacity="0.2" fill="#FFFFFF" mask="url(#mask-6)" points="341.6941 624.32843 423.909 624.32843 423.909 501.674098 341.6941 501.674098"></polygon>
                    <path d="M416.1418,615.931821 L405.8685,615.931821 C404.8995,615.931821 404.1148,615.147074 404.1148,614.178015 L404.1148,600.145665 C404.1148,599.178506 404.8995,598.393759 405.8685,598.393759 L416.1418,598.393759 C417.1108,598.393759 417.8955,599.178506 417.8955,600.145665 L417.8955,614.178015 C417.8955,615.147074 417.1108,615.931821 416.1418,615.931821" id="Fill-245" fill-opacity="0.3" fill="#000000" mask="url(#mask-6)"></path>
                    <path d="M397.60103,615.931821 L387.32773,615.931821 C386.35873,615.931821 385.57403,615.147074 385.57403,614.178015 L385.57403,600.145665 C385.57403,599.178506 386.35873,598.393759 387.32773,598.393759 L397.60103,598.393759 C398.57003,598.393759 399.35473,599.178506 399.35473,600.145665 L399.35473,614.178015 C399.35473,615.147074 398.57003,615.931821 397.60103,615.931821" id="Fill-246" fill-opacity="0.3" fill="#000000" mask="url(#mask-6)"></path>
                    <polygon id="Fill-247" fill="#000000" mask="url(#mask-6)" points="470.7611 514.454272 480.7836 514.454272 480.7836 501.674098 470.7611 501.674098"></polygon>
                    <polygon id="Fill-248" fill-opacity="0.3" fill="#000000" mask="url(#mask-6)" points="439.1793 570.078243 508.1531 570.078243 508.1531 554.043171 439.1793 554.043171"></polygon>
                    <polygon id="Fill-249" fill-opacity="0.3" fill="#000000" mask="url(#mask-6)" points="347.0578 531.646514 370.6387 531.646514 370.6387 508.066085 347.0578 508.066085"></polygon>
                    <polygon id="Fill-250" fill="#263238" mask="url(#mask-6)" points="359.7878 501.674098 536.9609 501.674098 536.9609 379.021666 359.7878 379.021666"></polygon>
                    <polygon id="Fill-251" fill-opacity="0.2" fill="#FFFFFF" mask="url(#mask-6)" points="359.7878 501.674098 442.0027 501.674098 442.0027 379.021666 359.7878 379.021666"></polygon>
                    <path d="M434.23531,493.279769 L423.96201,493.279769 C422.99301,493.279769 422.20831,492.495022 422.20831,491.525963 L422.20831,477.493613 C422.20831,476.526454 422.99301,475.739807 423.96201,475.739807 L434.23531,475.739807 C435.20431,475.739807 435.98901,476.526454 435.98901,477.493613 L435.98901,491.525963 C435.98901,492.495022 435.20431,493.279769 434.23531,493.279769" id="Fill-252" fill-opacity="0.3" fill="#000000" mask="url(#mask-6)"></path>
                    <path d="M415.69454,493.279769 L405.42314,493.279769 C404.45414,493.279769 403.66754,492.495022 403.66754,491.525963 L403.66754,477.493613 C403.66754,476.526454 404.45414,475.739807 405.42314,475.739807 L415.69454,475.739807 C416.66354,475.739807 417.44824,476.526454 417.44824,477.493613 L417.44824,491.525963 C417.44824,492.495022 416.66354,493.279769 415.69454,493.279769" id="Fill-253" fill-opacity="0.3" fill="#000000" mask="url(#mask-6)"></path>
                    <polygon id="Fill-254" fill="#000000" mask="url(#mask-6)" points="488.8548 391.79994 498.8773 391.79994 498.8773 379.021666 488.8548 379.021666"></polygon>
                    <polygon id="Fill-255" fill-opacity="0.3" fill="#000000" mask="url(#mask-6)" points="457.273 447.425811 526.2468 447.425811 526.2468 431.390739 457.273 431.390739"></polygon>
                    <polygon id="Fill-256" fill-opacity="0.3" fill="#000000" mask="url(#mask-6)" points="365.1515 408.992182 388.7324 408.992182 388.7324 385.411753 365.1515 385.411753"></polygon>
                    <polygon id="Fill-257" fill="#FFFFFF" mask="url(#mask-6)" points="468.2436 501.674098 645.4167 501.674098 645.4167 379.021666 468.2436 379.021666"></polygon>
                    <polygon id="Fill-258" fill="#B39C68" mask="url(#mask-6)" points="468.2436 501.674098 645.4167 501.674098 645.4167 379.021666 468.2436 379.021666"></polygon>
                    <polygon id="Fill-259" fill-opacity="0.2" fill="#FFFFFF" mask="url(#mask-6)" points="468.2436 501.674098 550.4585 501.674098 550.4585 379.021666 468.2436 379.021666"></polygon>
                    <path d="M542.69206,493.279769 L532.41876,493.279769 C531.44976,493.279769 530.66506,492.495022 530.66506,491.525963 L530.66506,477.493613 C530.66506,476.526454 531.44976,475.739807 532.41876,475.739807 L542.69206,475.739807 C543.66106,475.739807 544.44576,476.526454 544.44576,477.493613 L544.44576,491.525963 C544.44576,492.495022 543.66106,493.279769 542.69206,493.279769" id="Fill-260" fill-opacity="0.3" fill="#000000" mask="url(#mask-6)"></path>
                    <path d="M524.15129,493.279769 L513.87799,493.279769 C512.90899,493.279769 512.12429,492.495022 512.12429,491.525963 L512.12429,477.493613 C512.12429,476.526454 512.90899,475.739807 513.87799,475.739807 L524.15129,475.739807 C525.12029,475.739807 525.90499,476.526454 525.90499,477.493613 L525.90499,491.525963 C525.90499,492.495022 525.12029,493.279769 524.15129,493.279769" id="Fill-261" fill-opacity="0.3" fill="#000000" mask="url(#mask-6)"></path>
                    <polygon id="Fill-262" fill-opacity="0.3" fill="#000000" mask="url(#mask-6)" points="597.3106 391.79994 607.3331 391.79994 607.3331 379.021666 597.3106 379.021666"></polygon>
                    <polygon id="Fill-263" fill-opacity="0.3" fill="#000000" mask="url(#mask-6)" points="565.7307 447.425811 634.7026 447.425811 634.7026 431.390739 565.7307 431.390739"></polygon>
                    <g id="Group-2" mask="url(#mask-6)">
                        <g transform="translate(584.000000, 403.000000)" id="Oval">
                            <ellipse fill="#3B7580" cx="7.41304348" cy="7.5" rx="7.41304348" ry="7.5"></ellipse>
                            <ellipse fill="#00245B" cx="16.5" cy="7.5" rx="7.41304348" ry="7.5"></ellipse>
                            <ellipse fill="#E9B200" cx="25.5869565" cy="7.5" rx="7.41304348" ry="7.5"></ellipse>
                        </g>
                    </g>
                    <polygon id="Fill-264" fill-opacity="0.3" fill="#000000" mask="url(#mask-6)" points="473.6073 408.992182 497.1882 408.992182 497.1882 385.411753 473.6073 385.411753"></polygon>
                    <polygon id="Fill-265" fill="#B39C68" mask="url(#mask-6)" points="406.961 379.021666 584.1341 379.021666 584.1341 256.367334 406.961 256.367334"></polygon>
                    <g id="Group-2" mask="url(#mask-6)">
                        <g transform="translate(522.000000, 281.000000)" id="Oval">
                            <ellipse fill="#3B7580" cx="7.41304348" cy="7.5" rx="7.41304348" ry="7.5"></ellipse>
                            <ellipse fill="#00245B" cx="16.5" cy="7.5" rx="7.41304348" ry="7.5"></ellipse>
                            <ellipse fill="#E9B200" cx="25.5869565" cy="7.5" rx="7.41304348" ry="7.5"></ellipse>
                        </g>
                    </g>
                    <polygon id="Fill-266" fill-opacity="0.2" fill="#FFFFFF" mask="url(#mask-6)" points="406.961 379.021666 489.1759 379.021666 489.1759 256.367334 406.961 256.367334"></polygon>
                    <path d="M481.40965,370.625817 L471.13635,370.625817 C470.16735,370.625817 469.38265,369.84107 469.38265,368.872011 L469.38265,354.839661 C469.38265,353.872502 470.16735,353.087755 471.13635,353.087755 L481.40965,353.087755 C482.37865,353.087755 483.16335,353.872502 483.16335,354.839661 L483.16335,368.872011 C483.16335,369.84107 482.37865,370.625817 481.40965,370.625817" id="Fill-267" fill-opacity="0.3" fill="#000000" mask="url(#mask-6)"></path>
                    <path d="M462.86888,370.625817 L452.59748,370.625817 C451.62848,370.625817 450.84188,369.84107 450.84188,368.872011 L450.84188,354.839661 C450.84188,353.872502 451.62848,353.087755 452.59748,353.087755 L462.86888,353.087755 C463.83788,353.087755 464.62258,353.872502 464.62258,354.839661 L464.62258,368.872011 C464.62258,369.84107 463.83788,370.625817 462.86888,370.625817" id="Fill-268" fill-opacity="0.3" fill="#000000" mask="url(#mask-6)"></path>
                    <polygon id="Fill-269" fill-opacity="0.3" fill="#000000" mask="url(#mask-6)" points="536.0318 269.147509 546.0524 269.147509 546.0524 256.369234 536.0318 256.369234"></polygon>
                    <polygon id="Fill-270" fill-opacity="0.3" fill="#000000" mask="url(#mask-6)" points="504.4462 324.773379 573.42 324.773379 573.42 308.738307 504.4462 308.738307"></polygon>
                    <polygon id="Fill-271" fill-opacity="0.3" fill="#000000" mask="url(#mask-6)" points="412.3266 286.33975 435.9075 286.33975 435.9075 262.759321 412.3266 262.759321"></polygon>
                    <polygon id="Fill-272" fill="#263238" mask="url(#mask-6)" points="454.442 624.32843 631.6151 624.32843 631.6151 501.674098 454.442 501.674098"></polygon>
                    <polygon id="Fill-274" fill-opacity="0.2" fill="#FFFFFF" mask="url(#mask-6)" points="454.442 624.32843 536.6569 624.32843 536.6569 501.674098 454.442 501.674098"></polygon>
                    <path d="M528.88932,615.931821 L518.61602,615.931821 C517.64702,615.931821 516.86232,615.147074 516.86232,614.178015 L516.86232,600.145665 C516.86232,599.178506 517.64702,598.393759 518.61602,598.393759 L528.88932,598.393759 C529.85832,598.393759 530.64302,599.178506 530.64302,600.145665 L530.64302,614.178015 C530.64302,615.147074 529.85832,615.931821 528.88932,615.931821" id="Fill-275" fill-opacity="0.3" fill="#000000" mask="url(#mask-6)"></path>
                    <path d="M510.34855,615.931821 L500.07525,615.931821 C499.10625,615.931821 498.32155,615.147074 498.32155,614.178015 L498.32155,600.145665 C498.32155,599.178506 499.10625,598.393759 500.07525,598.393759 L510.34855,598.393759 C511.31755,598.393759 512.10225,599.178506 512.10225,600.145665 L512.10225,614.178015 C512.10225,615.147074 511.31755,615.931821 510.34855,615.931821" id="Fill-276" fill-opacity="0.3" fill="#000000" mask="url(#mask-6)"></path>
                    <polygon id="Fill-277" fill-opacity="0.3" fill="#000000" mask="url(#mask-6)" points="583.509 514.454272 593.5315 514.454272 593.5315 501.674098 583.509 501.674098"></polygon>
                    <polygon id="Fill-278" fill-opacity="0.3" fill="#000000" mask="url(#mask-6)" points="551.9272 570.078243 620.8991 570.078243 620.8991 554.043171 551.9272 554.043171"></polygon>
                    <polygon id="Fill-279" fill-opacity="0.3" fill="#000000" mask="url(#mask-6)" points="459.8076 531.646514 483.3866 531.646514 483.3866 508.066085 459.8076 508.066085"></polygon>
                </g>
            </g>
        </g>
    </g>
</svg>