<?xml version="1.0" encoding="UTF-8"?>
<svg width="540px" height="539px" viewBox="0 0 540 539" version="1.1" xmlns="http://www.w3.org/2000/svg" xmlns:xlink="http://www.w3.org/1999/xlink">
    <title>noun-warehouse-4495844</title>
    <defs>
        <polygon id="path-1" points="0 0 45.9574468 0 45.9574468 45.8723404 0 45.8723404"></polygon>
        <polygon id="path-3" points="0 0 45.9574468 0 45.9574468 45.8723404 0 45.8723404"></polygon>
        <polygon id="path-5" points="0 0 45.9574468 0 45.9574468 45.8723404 0 45.8723404"></polygon>
    </defs>
    <g id="Check-Out-Page" stroke="none" stroke-width="1" fill="none" fill-rule="evenodd">
        <g id="01---How-it-works-page" transform="translate(-230.000000, -230.000000)">
            <g id="noun-warehouse-4495844" transform="translate(230.000000, 230.000000)">
                <path d="M528.749547,516.464961 L515.556674,516.464961 L515.556674,187.385593 L528.717163,187.385593 C533.716018,187.385593 538.110857,184.089055 539.518835,179.295068 C540.926708,174.505259 538.992426,169.360437 534.785321,166.663317 L277.268877,1.77373749 C273.575834,-0.588527421 268.854542,-0.592600832 265.141546,1.76965782 L7.18634992,166.669682 C2.9792347,169.362415 1.04496247,174.503164 2.45283603,179.301433 C3.86070959,184.095316 8.25554825,187.391958 13.2545075,187.391958 L26.4149965,187.391958 L26.4149965,516.471326 L11.2508705,516.471326 C5.03197013,516.471326 0,521.505957 0,527.720207 C0,533.933934 5.03144781,538.969087 11.2508705,538.969087 C379.228507,539.034366 500.554051,538.977247 528.749129,538.969087 C534.96803,538.969087 540,533.934456 540,527.720207 C540,521.50648 534.968552,516.471326 528.749129,516.471326 L528.749547,516.464961 Z M271.201764,24.595387 L490.275122,164.887832 L51.7209936,164.887832 L271.201764,24.595387 Z M493.053888,187.385593 L493.053888,234.063747 L48.9108876,234.063747 L48.9108876,187.385593 L493.053888,187.385593 Z M48.9108876,256.560464 L493.053888,256.560464 L493.053888,516.464961 L466.113433,516.464961 L466.113433,288.343513 C466.113433,282.129786 461.081986,277.094632 454.862563,277.094632 L85.2030411,277.094632 C78.9841407,277.094632 73.9521705,282.129264 73.9521705,288.343513 L73.9521705,516.464961 L48.9046197,516.469041 L48.9108876,256.560464 Z M443.621094,516.464961 L413.64071,516.464961 L413.64071,432.708324 C413.64071,426.494597 408.609263,421.459444 402.38984,421.459444 L332.745175,421.459444 L332.745175,337.547182 C332.745175,331.333455 327.713727,326.298301 321.494305,326.298301 L220.473605,326.298301 C214.254705,326.298301 209.222735,331.332932 209.222735,337.547182 L209.222735,421.459444 L139.57807,421.459444 C133.35917,421.459444 128.3272,426.494075 128.3272,432.708324 L128.3272,516.464961 L96.4570456,516.464961 L96.4570456,299.592393 L443.614826,299.592393 L443.621094,516.464961 Z M190.053424,466.579257 C196.272325,466.579257 201.304295,461.544626 201.304295,455.330377 L201.304295,443.955116 L229.362524,443.955116 L229.362524,516.463917 L150.829985,516.463917 L150.829985,443.955116 L178.802554,443.955116 L178.802554,455.330377 C178.802554,461.54003 183.834001,466.579257 190.053424,466.579257 L190.053424,466.579257 Z M270.981343,373.577022 C277.200244,373.577022 282.232214,368.542391 282.232214,362.328142 L282.232214,348.795018 L310.245523,348.795018 L310.245523,421.458399 L231.72552,421.458399 L231.72552,348.795018 L259.731517,348.795018 L259.731517,362.328142 C259.731517,368.541869 264.762965,373.577022 270.982388,373.577022 L270.981343,373.577022 Z M251.863221,443.95616 L290.106779,443.95616 L290.106779,516.464961 L251.863221,516.464961 L251.863221,443.95616 Z M312.607475,443.95616 L340.645856,443.95616 L340.645856,455.331421 C340.645856,461.545148 345.677304,466.580302 351.896727,466.580302 C358.11615,466.580302 363.147597,461.54567 363.147597,455.331421 L363.147597,443.95616 L391.141059,443.95616 L391.141059,516.464961 L312.60852,516.464961 L312.607475,443.95616 Z" id="Shape" fill="#00112D" fill-rule="nonzero"></path>
                <g id="Group-10" transform="translate(219.993702, 91.744681)">
                    <g id="Group-3">
                        <mask id="mask-2" fill="white">
                            <use xlink:href="#path-1"></use>
                        </mask>
                        <g id="Clip-2"></g>
                        <path d="M45.9574468,22.936196 C45.9574468,35.6034959 35.6694952,45.8723919 22.978689,45.8723919 C10.2878829,45.8723919 -6.87708803e-05,35.6034959 -6.87708803e-05,22.936196 C-6.87708803e-05,10.268896 10.2878829,0 22.978689,0 C35.6694952,0 45.9574468,10.268896 45.9574468,22.936196" id="Fill-1" fill="#3A7682" mask="url(#mask-2)"></path>
                    </g>
                    <g id="Group-6" transform="translate(34.468085, 0.000000)">
                        <mask id="mask-4" fill="white">
                            <use xlink:href="#path-3"></use>
                        </mask>
                        <g id="Clip-5"></g>
                        <path d="M45.9574468,22.936196 C45.9574468,35.6034959 35.6695106,45.8723919 22.9787234,45.8723919 C10.2879362,45.8723919 0,35.6034959 0,22.936196 C0,10.268896 10.2879362,0 22.9787234,0 C35.6695106,0 45.9574468,10.268896 45.9574468,22.936196" id="Fill-4" fill="#212C56" mask="url(#mask-4)"></path>
                    </g>
                    <g id="Group-9" transform="translate(57.446809, 0.000000)">
                        <mask id="mask-6" fill="white">
                            <use xlink:href="#path-5"></use>
                        </mask>
                        <g id="Clip-8"></g>
                        <path d="M45.95755,22.936196 C45.95755,35.6034959 35.6696291,45.8723919 22.9788609,45.8723919 C10.2879208,45.8723919 0,35.6034959 0,22.936196 C0,10.268896 10.2879208,0 22.9788609,0 C35.6696291,0 45.95755,10.268896 45.95755,22.936196" id="Fill-7" fill="#E9B105" mask="url(#mask-6)"></path>
                    </g>
                </g>
            </g>
        </g>
    </g>
</svg>