<svg enable-background="new 0 0 512 512" height="512" viewBox="0 0 512 512" width="512" xmlns="http://www.w3.org/2000/svg"><g id="_x32_1"><g id="XMLID_237_"><g id="XMLID_246_"><path id="XMLID_203_" d="m256 489.494c-48.196 0-93.642-5.506-127.965-15.502-38.633-11.252-59.053-27.175-59.053-46.046 0-37.656 80.232-56.064 148.938-60.387 5.521-.359 10.261 3.841 10.608 9.353s-3.841 10.262-9.353 10.608c-38.036 2.393-72.472 8.518-96.965 17.247-24.526 8.741-33.229 17.949-33.229 23.179 0 5.141 9.403 16.579 44.646 26.844 32.557 9.482 76.017 14.704 122.373 14.704 46.366 0 89.829-5.222 122.383-14.704 35.234-10.264 44.636-21.702 44.636-26.844 0-13.459-47.355-35.655-132.98-40.582-5.514-.317-9.727-5.044-9.409-10.558.316-5.514 5.055-9.744 10.558-9.409 70.041 4.03 151.832 22.306 151.832 60.549 0 18.872-20.417 34.795-59.043 46.046-34.322 9.996-79.771 15.502-127.977 15.502z"/></g><g id="XMLID_242_"><path id="XMLID_243_" d="m254.436 446.573c-3.635.001-6.984-1.971-8.747-5.149-9.042-16.303-22.945-38.42-39.044-64.029-44.978-71.548-100.954-160.592-100.954-203.044 0-82.017 66.726-148.743 148.743-148.743 82.002 0 148.716 66.726 148.716 148.743 0 44.576-52.702 127.512-99.2 200.685-16.011 25.196-31.133 48.994-40.77 66.385-1.761 3.179-5.109 5.151-8.744 5.152zm-.002-400.966c-70.989 0-128.743 57.754-128.743 128.743 0 36.688 56.576 126.686 97.886 192.401 11.766 18.716 22.371 35.586 30.86 49.841 9.183-15.381 20.662-33.445 32.633-52.283 40.548-63.81 96.08-151.2 96.08-189.958 0-70.99-57.742-128.744-128.716-128.744z"/></g><g id="XMLID_238_"><path id="XMLID_239_" d="m254.434 241.1c-39.704 0-72.006-32.29-72.006-71.979 0-39.704 32.302-72.005 72.006-72.005 39.689 0 71.979 32.301 71.979 72.005 0 39.69-32.29 71.979-71.979 71.979zm0-123.984c-28.676 0-52.006 23.33-52.006 52.005 0 28.661 23.33 51.979 52.006 51.979 28.662 0 51.979-23.318 51.979-51.979 0-28.676-23.317-52.005-51.979-52.005z"/></g></g></g></svg>