<svg height="512pt" viewBox="-37 0 512 512" width="512pt" xmlns="http://www.w3.org/2000/svg"><path d="m437.179688 300.265625c-.007813-1.308594-.382813-2.667969-1.050782-3.789063l-21.359375-35.984374c-2.148437-3.613282-6.089843-5.859376-10.292969-5.859376h-173.019531c-4.195312 0-8.136719 2.238282-10.285156 5.84375l-21.449219 35.988282c-.019531.035156-.035156.074218-.058594.109375-.039062.070312-.082031.140625-.121093.210937h-39.523438c-4.144531 0-7.5 3.359375-7.5 7.5 0 4.144532 3.355469 7.5 7.5 7.5h38.644531v15.371094h-38.644531c-4.144531 0-7.5 3.359375-7.5 7.5 0 4.144531 3.355469 7.5 7.5 7.5h38.644531v62.25h-38.644531c-4.144531 0-7.5 3.359375-7.5 7.5 0 4.144531 3.355469 7.5 7.5 7.5h38.644531v15.371094h-38.644531c-4.144531 0-7.5 3.359375-7.5 7.5 0 4.144531 3.355469 7.5 7.5 7.5h38.644531v46.835937h-162.496093c-11.671875 0-21.167969-9.496093-21.167969-21.167969v-439.277343c0-11.671875 9.496094-21.167969 21.167969-21.167969h283.335937l56.332032 56.324219v156.828125c0 4.144531 3.359374 7.5 7.5 7.5 4.140624 0 7.5-3.355469 7.5-7.5v-159.933594c0-1.992188-.789063-3.898438-2.195313-5.304688l-60.730469-60.71875c-1.40625-1.40625-3.3125-2.195312-5.300781-2.195312h-286.441406c-19.941407 0-36.167969 16.226562-36.167969 36.167969v439.273437c0 19.945313 16.226562 36.167969 36.167969 36.167969h173.855469c1.066406.246094 2.167968.390625 3.300781.390625h209.195312c8.082031 0 14.660157-6.578125 14.660157-14.660156v-197.035156c0-.011719 0-.027344 0-.039063zm-20.671876-7.460937h-64.5l-4.046874-23.171876h54.789062zm-115.667968 15h37.367187v53.132812l-14.203125-10.582031c-2.660156-1.980469-6.304687-1.980469-8.960937 0l-14.203125 10.582031zm31.894531-38.171876 4.046875 23.171876h-34.667969l3.648438-23.171876zm-119.070313 227.367188v-194.628906l19.511719-32.738282h57.402344l-3.652344 23.171876h-43.296875c-4.140625 0-7.5 3.355468-7.5 7.5 0 4.144531 3.359375 7.5 7.5 7.5h42.210938v68.070312c0 2.835938 1.597656 5.429688 4.132812 6.703125 2.535156 1.269531 5.570313 1.007813 7.847656-.6875l21.703126-16.167969 21.703124 16.167969c1.320313.980469 2.894532 1.484375 4.480469 1.484375 1.148438 0 2.300781-.261719 3.363281-.796875 2.535157-1.273437 4.136719-3.867187 4.136719-6.703125v-68.070312h68.972657v189.195312zm0 0"/><path d="m138.125 44.308594c-2.929688-2.929688-7.675781-2.925782-10.605469 0l-13.527343 13.527344c-7.640626-6.644532-17.609376-10.683594-28.511719-10.683594-23.992188 0-43.515625 19.523437-43.515625 43.515625 0 23.992187 19.523437 43.515625 43.515625 43.515625 23.996093 0 43.515625-19.519532 43.515625-43.515625 0-7.664063-2-14.867188-5.492188-21.128907l14.625-14.621093c2.925782-2.929688 2.925782-7.679688-.003906-10.609375zm-24.128906 46.359375c0 15.722656-12.789063 28.515625-28.515625 28.515625-15.722657 0-28.515625-12.792969-28.515625-28.515625 0-15.722657 12.792968-28.515625 28.515625-28.515625 6.765625 0 12.980469 2.371094 17.875 6.320312l-16.421875 16.421875-2.148438-2.144531c-2.929687-2.929688-7.675781-2.929688-10.605468 0-2.929688 2.929688-2.929688 7.679688 0 10.605469l7.449218 7.449219c1.464844 1.464843 3.382813 2.199218 5.304688 2.199218 1.917968 0 3.835937-.734375 5.300781-2.199218l20.003906-20c1.136719 3.074218 1.757813 6.394531 1.757813 9.863281zm0 0"/><path d="m327.238281 67.980469h-167.222656c-4.140625 0-7.5 3.359375-7.5 7.5 0 4.144531 3.359375 7.5 7.5 7.5h167.222656c4.144531 0 7.5-3.355469 7.5-7.5 0-4.140625-3.355469-7.5-7.5-7.5zm0 0"/><path d="m160.015625 113.351562h66.070313c4.144531 0 7.5-3.355468 7.5-7.5 0-4.140624-3.355469-7.5-7.5-7.5h-66.070313c-4.140625 0-7.5 3.359376-7.5 7.5 0 4.144532 3.359375 7.5 7.5 7.5zm0 0"/><path d="m138.125 156.480469c-2.929688-2.929688-7.675781-2.929688-10.605469 0l-13.527343 13.527343c-7.640626-6.648437-17.609376-10.683593-28.511719-10.683593-23.992188 0-43.515625 19.519531-43.515625 43.515625s19.523437 43.515625 43.515625 43.515625c23.996093 0 43.515625-19.519531 43.515625-43.515625 0-7.664063-2-14.867188-5.492188-21.128906l14.625-14.621094c2.925782-2.933594 2.925782-7.679688-.003906-10.609375zm-24.128906 46.359375c0 15.722656-12.789063 28.515625-28.515625 28.515625-15.722657 0-28.515625-12.792969-28.515625-28.515625s12.792968-28.515625 28.515625-28.515625c6.765625 0 12.980469 2.371093 17.875 6.320312l-16.421875 16.421875-2.148438-2.144531c-2.929687-2.929687-7.675781-2.929687-10.605468 0-2.929688 2.929687-2.929688 7.679687 0 10.605469l7.449218 7.449218c1.464844 1.464844 3.382813 2.199219 5.304688 2.199219 1.917968 0 3.835937-.734375 5.300781-2.199219l20.003906-20c1.136719 3.074219 1.757813 6.398438 1.757813 9.863282zm0 0"/><path d="m334.738281 187.652344c0-4.140625-3.355469-7.5-7.5-7.5h-167.222656c-4.140625 0-7.5 3.359375-7.5 7.5 0 4.144531 3.359375 7.5 7.5 7.5h167.222656c4.144531 0 7.5-3.355469 7.5-7.5zm0 0"/><path d="m160.015625 210.523438c-4.140625 0-7.5 3.359374-7.5 7.5 0 4.144531 3.359375 7.5 7.5 7.5h66.070313c4.144531 0 7.5-3.355469 7.5-7.5 0-4.140626-3.355469-7.5-7.5-7.5zm0 0"/><path d="m85.480469 275.953125c-23.992188 0-43.515625 19.523437-43.515625 43.515625 0 23.996094 19.523437 43.515625 43.515625 43.515625 23.996093 0 43.515625-19.519531 43.515625-43.515625 0-23.992188-19.519532-43.515625-43.515625-43.515625zm0 72.03125c-15.722657 0-28.515625-12.792969-28.515625-28.515625s12.792968-28.515625 28.515625-28.515625c15.726562 0 28.515625 12.792969 28.515625 28.515625s-12.792969 28.515625-28.515625 28.515625zm0 0"/><path d="m85.480469 383.574219c-23.992188 0-43.515625 19.523437-43.515625 43.519531 0 23.992188 19.523437 43.515625 43.515625 43.515625 23.996093 0 43.515625-19.523437 43.515625-43.515625 0-23.996094-19.519532-43.519531-43.515625-43.519531zm0 72.03125c-15.722657 0-28.515625-12.789063-28.515625-28.515625 0-15.722656 12.792968-28.515625 28.515625-28.515625 15.726562 0 28.515625 12.792969 28.515625 28.515625 0 15.726562-12.792969 28.515625-28.515625 28.515625zm0 0"/></svg>