<svg width="96" height="96" xmlns="http://www.w3.org/2000/svg" xmlns:xlink="http://www.w3.org/1999/xlink" overflow="hidden"><defs><clipPath id="clip0"><rect x="607" y="591" width="96" height="96"/></clipPath></defs><g clip-path="url(#clip0)" transform="translate(-607 -591)"><path d="M690.29 602.436C687.117 597.731 680.731 596.489 676.026 599.662 674.931 600.4 673.989 601.342 673.251 602.436 671.334 605.265 670.929 608.855 672.168 612.039L676.846 622.381 680.884 630.851C681.135 631.34 681.735 631.534 682.225 631.283 682.411 631.188 682.562 631.036 682.657 630.851L686.695 622.381 691.373 612.039C692.612 608.855 692.207 605.265 690.29 602.436ZM689.526 611.27 684.89 621.52 681.78 628.044C681.775 628.054 681.767 628.054 681.762 628.044L678.668 621.557 674.015 611.27C673.034 608.706 673.368 605.824 674.911 603.552 677.467 599.764 682.611 598.765 686.399 601.321 687.284 601.918 688.044 602.68 688.639 603.566 690.175 605.835 690.506 608.711 689.526 611.27Z"/><path d="M620.216 640.006C617.84 643.51 617.339 647.957 618.873 651.903L624.669 664.715 629.672 675.208C629.983 675.815 630.727 676.055 631.333 675.744 631.563 675.626 631.75 675.438 631.869 675.208L636.871 664.715 642.667 651.903C644.202 647.957 643.7 643.51 641.325 640.006 637.395 634.177 629.483 632.637 623.654 636.568 622.297 637.482 621.13 638.649 620.216 640.006ZM639.674 641.135C641.669 644.08 642.096 647.814 640.82 651.133L635.066 663.854 630.779 672.845C630.774 672.855 630.766 672.855 630.761 672.845L626.491 663.89 620.72 651.133C619.443 647.808 619.875 644.069 621.875 641.122 625.189 636.209 631.858 634.913 636.771 638.227 637.917 639.001 638.903 639.988 639.674 641.135Z"/><path d="M650.863 673.888C651.853 673.877 652.86 673.86 653.878 673.836L653.83 671.836C652.821 671.86 651.822 671.877 650.839 671.888Z"/><path d="M658.821 635.313 657.924 633.525C656.968 633.996 656.058 634.558 655.21 635.204L656.436 636.785C657.182 636.219 657.98 635.726 658.821 635.313Z"/><path d="M654.625 638.701 652.937 637.63C652.303 638.612 651.932 639.739 651.859 640.905L653.855 641.025C653.906 640.197 654.171 639.396 654.625 638.701Z"/><path d="M647.846 671.909 646.832 671.91 644.851 671.906 644.843 673.906 646.832 673.91 647.85 673.909 647.846 671.909Z"/><path d="M666.65 649.409C665.67 649.163 664.7 648.918 663.757 648.662L663.234 650.593C664.19 650.851 665.171 651.1 666.163 651.349Z"/><path d="M638.847 671.88 638.847 673.88C639.763 673.88 640.767 673.885 641.841 673.891L641.852 671.891C640.774 671.885 639.767 671.88 638.847 671.88Z"/><path d="M654.628 646.926 655.881 645.367C655.209 644.854 654.666 644.193 654.292 643.434L652.482 644.286C652.987 645.318 653.721 646.221 654.628 646.926Z"/><path d="M666.725 630.674 667.132 632.632C668.064 632.439 669.044 632.261 670.043 632.103L669.731 630.127C668.7 630.29 667.688 630.474 666.725 630.674Z"/><path d="M672.757 629.717 672.982 631.705C674.715 631.508 675.852 631.445 675.9 631.443L675.792 629.445C675.667 629.452 674.517 629.517 672.757 629.717Z"/><path d="M684.694 663.092C684.698 662.218 684.601 661.348 684.406 660.496L682.459 660.952C682.619 661.653 682.698 662.37 682.694 663.089 682.694 663.251 682.685 663.412 682.667 663.573L684.655 663.794C684.681 663.561 684.694 663.326 684.694 663.092Z"/><path d="M674.444 669.588 674.967 671.518C675.968 671.251 676.955 670.932 677.922 670.561L677.198 668.696C676.296 669.042 675.377 669.339 674.444 669.588Z"/><path d="M679.731 667.469 680.78 669.172C681.74 668.603 682.593 667.872 683.303 667.011L681.738 665.766C681.172 666.445 680.493 667.021 679.731 667.469Z"/><path d="M675.417 651.962 674.699 653.829C675.597 654.168 676.472 654.563 677.32 655.012L678.264 653.249C677.343 652.761 676.392 652.331 675.417 651.962Z"/><path d="M680.926 655.014 679.646 656.551C680.34 657.119 680.944 657.789 681.437 658.537L683.117 657.452C682.514 656.534 681.776 655.712 680.926 655.014Z"/><path d="M668.676 670.745 668.966 672.724C670.019 672.569 671.031 672.397 671.975 672.211L671.588 670.248C670.676 670.428 669.696 670.595 668.676 670.745Z"/><path d="M657.394 648.595C658.34 649.028 659.31 649.405 660.3 649.725L660.927 647.826C660.011 647.531 659.113 647.182 658.237 646.782Z"/><path d="M659.914 673.597 659.798 671.6C658.806 671.657 657.81 671.704 656.817 671.743L656.896 673.741C657.9 673.703 658.909 673.655 659.914 673.597Z"/><path d="M660.798 632.305 661.476 634.187C662.336 633.877 663.275 633.583 664.267 633.314L663.743 631.384C662.699 631.667 661.708 631.977 660.798 632.305Z"/><path d="M662.933 673.391C663.951 673.309 664.959 673.215 665.951 673.107L665.734 671.119C664.761 671.225 663.771 671.317 662.773 671.397Z"/><path d="M669.573 650.152 669.066 652.087C670.029 652.339 670.987 652.602 671.924 652.887L672.504 650.973C671.544 650.681 670.56 650.411 669.573 650.152Z"/><path d="M681.77 603.815C679.322 603.815 677.338 605.8 677.338 608.247 677.338 610.695 679.323 612.679 681.77 612.679 684.218 612.679 686.202 610.695 686.202 608.247 686.212 605.81 684.245 603.826 681.807 603.815 681.795 603.815 681.782 603.815 681.77 603.815ZM681.77 610.679C680.427 610.679 679.338 609.59 679.338 608.247 679.338 606.904 680.427 605.815 681.77 605.815 683.113 605.815 684.202 606.904 684.202 608.247 684.216 609.576 683.151 610.665 681.822 610.679 681.805 610.68 681.787 610.68 681.77 610.679Z"/><path d="M625.279 647.205C625.279 650.237 627.738 652.696 630.77 652.696 633.803 652.696 636.261 650.238 636.261 647.205 636.261 644.172 633.803 641.714 630.771 641.714 630.77 641.714 630.77 641.714 630.77 641.714 627.75 641.701 625.292 644.14 625.279 647.159 625.279 647.174 625.279 647.19 625.279 647.205ZM634.261 647.205C634.261 649.133 632.698 650.696 630.771 650.696 628.843 650.696 627.279 649.133 627.279 647.205 627.279 645.277 628.842 643.714 630.77 643.714 630.77 643.714 630.77 643.714 630.77 643.714 632.678 643.693 634.241 645.223 634.261 647.13 634.262 647.155 634.262 647.18 634.261 647.205Z"/></g></svg>