<svg width="96" height="96" xmlns="http://www.w3.org/2000/svg" xmlns:xlink="http://www.w3.org/1999/xlink" overflow="hidden"><defs><clipPath id="clip0"><rect x="868" y="365" width="96" height="96"/></clipPath></defs><g clip-path="url(#clip0)" transform="translate(-868 -365)"><path d="M906 381 911 381 911 385 906 385Z"/><path d="M894 405 899 405 899 409 894 409Z"/><path d="M882 429 887 429 887 433 882 433Z"/><path d="M906 429 911 429 911 433 906 433Z"/><path d="M930 429 935 429 935 433 930 433Z"/><path d="M927 385.073C926.294 385.495 925.625 385.975 925 386.51L925 400 920.163 400C920.28 400.677 920.444 401.346 920.656 402L937 402 937 411.759C937.678 411.638 938.346 411.468 939 411.251L939 400 927 400Z"/><path d="M949 437.705 949 448 927 448 927 426 942.011 426 941.605 425.317C941.358 424.9 941.155 424.459 941 424L939 424 939 419.533C938.344 419.669 937.676 419.772 937 419.849L937 424 915 424 915 408.821C914.182 407.424 913.517 405.942 913.018 404.401 913.008 404.37 913 404.371 913 404.401L913 424 891 424 891 402 912.385 402C912.251 401.344 912.149 400.676 912.074 400L903 400 903 378 923.229 378C924.43 377.307 925.692 376.726 927 376.267L927 376 901 376 901 400 889 400 889 424 877 424 877 450 951 450 951 439.718C950.204 439.189 949.524 438.504 949 437.705ZM901 448 879 448 879 426 901 426ZM925 448 903 448 903 426 925 426Z"/><path d="M960.428 430.549 953.21 418.419C951.899 416.48 949.382 415.767 947.249 416.731L945.393 413.616C954.222 407.574 956.482 395.518 950.44 386.689 944.397 377.859 932.342 375.6 923.512 381.642 914.683 387.684 912.424 399.74 918.466 408.569 924.071 416.76 934.961 419.39 943.686 414.659L945.528 417.75C944.773 418.381 944.201 419.203 943.872 420.13 943.423 421.333 943.537 422.673 944.183 423.783L951.4 435.914C952.243 437.256 953.734 438.05 955.318 438 956.354 437.994 957.369 437.709 958.257 437.175 959.409 436.507 960.288 435.453 960.738 434.2 961.186 432.998 961.073 431.658 960.428 430.549ZM917.022 399.292C916.033 389.678 923.026 381.082 932.64 380.094 942.254 379.105 950.85 386.097 951.838 395.712 952.827 405.326 945.835 413.921 936.22 414.91 935.03 415.032 933.83 415.032 932.64 414.91 924.395 414.054 917.878 407.537 917.022 399.292ZM958.849 433.546C958.552 434.351 957.98 435.026 957.235 435.452 955.693 436.367 953.847 436.115 953.119 434.891L945.9 422.761C945.561 422.157 945.509 421.432 945.76 420.786 946.057 419.981 946.628 419.307 947.373 418.881 947.956 418.528 948.624 418.337 949.306 418.33 950.18 418.286 951.011 418.709 951.49 419.441L958.707 431.572C959.047 432.176 959.099 432.9 958.849 433.546Z"/></g></svg>