<?xml version="1.0" encoding="UTF-8"?>
<svg width="26px" height="28px" viewBox="0 0 26 28" version="1.1" xmlns="http://www.w3.org/2000/svg" xmlns:xlink="http://www.w3.org/1999/xlink">
    <title>Group 3</title>
    <defs>
        <polygon id="path-1" points="0 0 26 0 26 28 0 28"></polygon>
    </defs>
    <g id="Contact" stroke="none" stroke-width="1" fill="none" fill-rule="evenodd">
        <g id="04---My-Shipments" transform="translate(-238.000000, -682.000000)">
            <g id="Group-Copy-5" transform="translate(233.000000, 678.000000)">
                <g id="Group-3" transform="translate(5.000000, 4.000000)">
                    <mask id="mask-2" fill="white">
                        <use xlink:href="#path-1"></use>
                    </mask>
                    <g id="Clip-2"></g>
                    <path d="M16.226106,12.624233 C15.8255366,12.9883959 15.2647394,13.1907086 14.6638853,13.1907086 C14.0630311,13.1907086 13.5422909,12.9883959 13.1016645,12.624233 C11.9800701,13.1907086 11.2189882,14.404585 11.1388743,15.7803115 L11.1388743,16.9537253 C11.1388743,17.4797384 12.741152,17.8439013 14.6638853,17.8439013 C16.5866185,17.8439013 18.1888962,17.4797384 18.1888962,16.9537253 L18.1888962,15.7803115 C18.1087823,14.3641224 17.3076435,13.1907086 16.226106,12.624233 L16.226106,12.624233 Z M14.6638853,8.65890364 C15.7854797,8.65890364 16.7067893,9.58954217 16.7067893,10.7224934 C16.7067893,11.8554447 15.7854797,12.7860832 14.6638853,12.7860832 C13.5422909,12.7860832 12.6209812,11.8554447 12.6209812,10.7224934 C12.6209812,9.58954217 13.5422909,8.65890364 14.6638853,8.65890364 L14.6638853,8.65890364 Z M23.1559571,24.3183131 L24.3981229,24.3183131 L24.3981229,20.9599218 L23.1559571,20.9599218 L23.1559571,24.3183131 Z M23.1559571,15.6993864 L24.3981229,15.6993864 L24.3981229,12.3409952 L23.1559571,12.3409952 L23.1559571,15.6993864 Z M23.1559571,7.04040185 L24.3981229,7.04040185 L24.3981229,3.68201064 L23.1559571,3.68201064 L23.1559571,7.04040185 Z M7.77409117,1.61842086 L21.5136224,1.61842086 L21.5136224,2.8322972 L21.5136224,7.8091902 L21.5136224,11.4912818 L21.5136224,16.4681748 L21.5136224,20.1098038 L21.5136224,25.0866968 L21.5136224,26.3005731 L7.77409117,26.3005731 L7.77409117,1.61842086 Z M3.32777055,1.61842086 L6.17181347,1.61842086 L6.17181347,26.3410357 L3.32777055,26.3410357 L3.32777055,24.1155957 L4.16896635,24.1155957 C4.60959271,24.1155957 4.9701052,23.7109703 4.9701052,23.2658823 C4.9701052,22.8207943 4.60959271,22.4566314 4.16896635,22.4566314 L3.32777055,22.4566314 L3.32777055,17.925231 L4.16896635,17.925231 C4.60959271,17.9652889 5.01016214,17.601126 5.05021908,17.156038 C5.09027602,16.7113547 4.72976354,16.3067292 4.28913717,16.265862 L4.16896635,16.265862 L3.32777055,16.265862 L3.32777055,11.734057 L4.16896635,11.734057 C4.60959271,11.734057 4.9701052,11.3698941 4.9701052,10.9248061 C4.9701052,10.4797181 4.60959271,10.1155552 4.16896635,10.1155552 L3.32777055,10.1155552 L3.32777055,5.50282515 L4.16896635,5.50282515 C4.60959271,5.50282515 5.01016214,5.13866225 5.01016214,4.69357426 C5.01016214,4.24848627 4.64964966,3.84386082 4.20902329,3.84386082 L4.16896635,3.84386082 L3.32777055,3.84386082 L3.32777055,1.61842086 Z M2.48657476,-8.09250894e-05 C2.04594839,-8.09250894e-05 1.68543591,0.364081977 1.68543591,0.809169969 L1.68543591,3.84386082 L0.84424012,3.84386082 C0.403613752,3.84386082 0.00304432763,4.20802372 0.00304432763,4.65311171 C0.00304432763,5.09819971 0.36355681,5.50282515 0.804183177,5.50282515 L0.84424012,5.50282515 L1.68543591,5.50282515 L1.68543591,10.0750927 L0.84424012,10.0750927 L0.764126235,10.0750927 C0.323499868,10.1155552 -0.0370126149,10.4797181 0.00304432763,10.9248061 C0.0431012701,11.3698941 0.403613752,11.734057 0.84424012,11.6935945 L1.68543591,11.6935945 L1.68543591,16.265862 L0.84424012,16.265862 L0.764126235,16.265862 C0.323499868,16.3067292 0.00304432763,16.7113547 0.0431012701,17.156038 C0.0831582126,17.5606635 0.443670695,17.8843638 0.84424012,17.8843638 L1.68543591,17.8843638 L1.68543591,22.4970939 L0.84424012,22.4970939 C0.403613752,22.4970939 0.0431012701,22.9017194 0.0431012701,23.3468074 C0.0431012701,23.7923 0.403613752,24.1560583 0.84424012,24.1560583 L1.68543591,24.1560583 L1.68543591,27.1907491 C1.68543591,27.6362417 2.04594839,28 2.48657476,28 L22.3548182,28 C22.7954446,28 23.1559571,27.6362417 23.1559571,27.1907491 L23.1559571,25.9768728 L25.1988612,25.9768728 C25.6394875,25.9768728 25.9999987,25.6131145 25.9999987,25.1676219 L25.9999987,20.150671 C25.9999987,19.7051783 25.6394875,19.3414201 25.1988612,19.3414201 L23.1559571,19.3414201 L23.1559571,17.3182928 L25.1988612,17.3182928 C25.6394875,17.3182928 25.9999987,16.9537253 25.9999987,16.5090419 L25.9999987,11.4912818 C25.9999987,11.0461938 25.6394875,10.6820309 25.1988612,10.6820309 L23.1559571,10.6820309 L23.1559571,8.65890364 L25.1988612,8.65890364 C25.6394875,8.65890364 25.9999987,8.29474074 25.9999987,7.84965274 L25.9999987,2.8322972 C25.9999987,2.38720921 25.6394875,2.02304631 25.1988612,2.02304631 L23.1559571,2.02304631 L23.1559571,0.809169969 C23.1559571,0.364081977 22.7954446,-8.09250894e-05 22.3548182,-8.09250894e-05 L2.48657476,-8.09250894e-05 Z" id="Fill-1" fill="#02142E" mask="url(#mask-2)"></path>
                </g>
            </g>
        </g>
    </g>
</svg>