<?xml version="1.0" encoding="UTF-8"?>
<svg width="25px" height="34px" viewBox="0 0 25 34" version="1.1" xmlns="http://www.w3.org/2000/svg" xmlns:xlink="http://www.w3.org/1999/xlink">
    <title>Group 19</title>
    <g id="Contact" stroke="none" stroke-width="1" fill="none" fill-rule="evenodd">
        <g id="04---My-Shipments" transform="translate(-238.000000, -343.000000)" fill="#02142E">
            <g id="Group-Copy" transform="translate(233.000000, 343.000000)">
                <g id="Group-19" transform="translate(5.000000, 0.000000)">
                    <path d="M23.5856269,31.2466957 C23.5856269,32.0116087 22.9357798,32.6614023 22.1712538,32.6614023 L2.67584098,32.6614023 C1.91131498,32.6614023 1.26146789,32.0116087 1.26146789,31.2466957 L1.26146789,5.20102588 C1.26146789,4.43611289 1.91131498,3.78631931 2.67584098,3.78631931 L5.31345566,3.78631931 L5.16055046,4.28351275 C4.93119266,5.00979764 5.42813456,5.69860178 6.23088685,5.69860178 L18.6926606,5.69860178 C19.4571865,5.69860178 19.9541284,4.97193444 19.7629969,4.28351275 L19.6100917,3.78631931 L22.2477064,3.78631931 C23.0122324,3.78631931 23.6620795,4.43611289 23.6620795,5.20102588 L23.6620795,31.2849413 L23.5856269,31.2849413 L23.5856269,31.2466957 Z M22.2477064,2.40947592 L19.1896024,2.40947592 L18.6926606,0.764912991 C18.4633028,0.267719547 18.0428135,0 17.5458716,0 L7.37767584,0 C6.88073394,0 6.46024465,0.267719547 6.30733945,0.764912991 L5.81039755,2.40947592 L2.75229358,2.40947592 C1.18501529,2.40947592 0,3.6711999 0,5.16316269 L0,31.2466957 C0,32.8147673 1.26146789,34 2.75229358,34 L22.2477064,34 C23.8149847,34 25,32.7378936 25,31.2466957 L25,5.20102588 C25,3.70982801 23.7385321,2.40947592 22.2477064,2.40947592 L22.2477064,2.40947592 Z" id="Fill-1"></path>
                    <path d="M5.46639908,11.0146323 L4.31961009,11.0146323 C3.8226682,11.0146323 3.4021789,11.4353345 3.4021789,11.9325279 L3.4021789,13.0798974 C3.4021789,13.5770909 3.8226682,13.997793 4.31961009,13.997793 L5.46639908,13.997793 C5.96334098,13.997793 6.38383028,13.5770909 6.38383028,13.0798974 L6.38383028,11.9325279 C6.38383028,11.4353345 5.96334098,11.0146323 5.46639908,11.0146323" id="Fill-3"></path>
                    <path d="M21.5977829,11.7795453 L9.48004587,11.7795453 C9.13600917,11.7795453 8.75374618,12.0472649 8.75374618,12.5062127 C8.75374618,12.8504235 9.02133028,13.23288 9.48004587,13.23288 L21.6742355,13.23288 C22.0186544,13.23288 22.4009174,12.9651605 22.4009174,12.5062127 C22.3240826,12.1237562 22.0186544,11.7795453 21.5977829,11.7795453" id="Fill-5"></path>
                    <path d="M5.46639908,16.2543628 L4.31961009,16.2543628 C3.8226682,16.2543628 3.4021789,16.675065 3.4021789,17.1722584 L3.4021789,18.3192454 C3.4021789,18.8168213 3.8226682,19.2375235 4.31961009,19.2375235 L5.46639908,19.2375235 C5.96334098,19.2375235 6.38383028,18.8168213 6.38383028,18.3192454 L6.38383028,17.1722584 C6.38383028,16.675065 5.96334098,16.2543628 5.46639908,16.2543628" id="Fill-7"></path>
                    <path d="M21.5977829,17.0192758 L9.48004587,17.0192758 C9.13600917,17.0192758 8.75374618,17.2869954 8.75374618,17.7455607 C8.75374618,18.090154 9.02133028,18.4726105 9.48004587,18.4726105 L21.6742355,18.4726105 C22.0186544,18.4726105 22.4009174,18.2048909 22.4009174,17.7455607 C22.3240826,17.3631042 22.0186544,17.0192758 21.5977829,17.0192758" id="Fill-9"></path>
                    <path d="M5.46639908,21.5702786 L4.31961009,21.5702786 C3.8226682,21.5702786 3.4021789,21.9913632 3.4021789,22.4881742 L3.4021789,23.6355437 C3.4021789,24.1327372 3.8226682,24.5538218 4.31961009,24.5538218 L5.46639908,24.5538218 C5.96334098,24.5538218 6.38383028,24.1327372 6.38383028,23.6355437 L6.38383028,22.4881742 C6.38383028,21.9144895 5.96334098,21.5702786 5.46639908,21.5702786" id="Fill-11"></path>
                    <path d="M21.5977829,22.3351916 L9.48004587,22.3351916 C9.13600917,22.3351916 8.75374618,22.6029112 8.75374618,23.061859 C8.75374618,23.4064523 9.02133028,23.7889088 9.48004587,23.7889088 L21.6742355,23.7889088 C22.0186544,23.7889088 22.4009174,23.5211892 22.4009174,23.061859 C22.3240826,22.6029112 22.0186544,22.3351916 21.5977829,22.3351916" id="Fill-13"></path>
                    <path d="M5.46639908,26.8100091 L4.31961009,26.8100091 C3.8226682,26.8100091 3.4021789,27.2310937 3.4021789,27.7279047 L3.4021789,28.8752742 C3.4021789,29.3724676 3.8226682,29.7931698 4.31961009,29.7931698 L5.46639908,29.7931698 C5.96334098,29.7931698 6.38383028,29.3724676 6.38383028,28.8752742 L6.38383028,27.7279047 C6.38383028,27.2310937 5.96334098,26.8100091 5.46639908,26.8100091" id="Fill-15"></path>
                    <path d="M21.5977829,27.5749221 L9.48004587,27.5749221 C9.13600917,27.5749221 8.75374618,27.8426416 8.75374618,28.3015894 C8.75374618,28.7222916 9.02133028,29.0282568 9.48004587,29.0282568 L21.6742355,29.0282568 C22.0186544,29.0282568 22.4009174,28.7609197 22.4009174,28.3015894 C22.3623089,27.8426416 22.0186544,27.5749221 21.5977829,27.5749221" id="Fill-17"></path>
                </g>
            </g>
        </g>
    </g>
</svg>