<?xml version="1.0" encoding="UTF-8"?>
<svg width="31px" height="21px" viewBox="0 0 31 21" version="1.1" xmlns="http://www.w3.org/2000/svg" xmlns:xlink="http://www.w3.org/1999/xlink">
    <title>Group 8</title>
    <defs>
        <polygon id="path-1" points="0 0 31 0 31 21 0 21"></polygon>
    </defs>
    <g id="Contact" stroke="none" stroke-width="1" fill="none" fill-rule="evenodd">
        <g id="04---My-Shipments" transform="translate(-235.000000, -545.000000)">
            <g id="Group-Copy-3" transform="translate(233.000000, 538.000000)">
                <g id="Group-8" transform="translate(2.000000, 7.000000)">
                    <path d="M8.80700599,4.41283677 C10.3068996,4.41283677 11.5227989,5.64762101 11.5227989,7.17081051 C11.5227989,8.694 10.3068996,9.92878424 8.80700599,9.92878424 C7.30711237,9.92878424 6.0912131,8.694 6.0912131,7.17081051 C6.0912131,5.64762101 7.30711237,4.41283677 8.80700599,4.41283677" id="Fill-1" fill="#02142E"></path>
                    <path d="M10.8631716,9.65290807 C10.320013,10.1257036 9.58286923,10.4015009 8.8069284,10.4015009 C8.03098757,10.4015009 7.29384379,10.1257036 6.75068521,9.65290807 C5.27639763,10.4409006 4.22887751,12.0168856 4.15128343,13.8686679 L4.15128343,15.4446529 C4.15128343,16.1144465 6.24632367,16.6266417 8.8069284,16.6266417 C11.3675331,16.6266417 13.4625734,16.1144465 13.4625734,15.4446529 L13.4625734,13.8686679 C13.3849793,12.0168856 12.3374592,10.4409006 10.8631716,9.65290807" id="Fill-3" fill="#02142E"></path>
                    <g id="Group-7">
                        <mask id="mask-2" fill="white">
                            <use xlink:href="#path-1"></use>
                        </mask>
                        <g id="Clip-6"></g>
                        <path d="M27.9338698,3.74296435 C27.9338698,4.33395872 27.4683053,4.80675422 26.8863497,4.80675422 L18.6225799,4.80675422 C18.0406243,4.80675422 17.5750598,4.33395872 17.5750598,3.74296435 C17.5750598,3.15196998 18.0406243,2.67917448 18.6225799,2.67917448 L26.8863497,2.67917448 C27.4683053,2.63977486 27.9338698,3.11257036 27.9338698,3.74296435 L27.9338698,3.74296435 Z M27.4295083,11.0318949 L18.1182183,11.0318949 C17.846639,11.0318949 17.6138568,10.7954972 17.6138568,10.5196998 C17.6138568,10.2439024 17.846639,10.0075047 18.1182183,10.0075047 L27.4295083,10.0075047 C27.7010876,10.0075047 27.9338698,10.2439024 27.9338698,10.5196998 C27.9338698,10.8348968 27.7010876,11.0318949 27.4295083,11.0318949 L27.4295083,11.0318949 Z M27.4295083,14.7748593 L18.1182183,14.7748593 C17.846639,14.7748593 17.6138568,14.5384615 17.6138568,14.2626642 C17.6138568,13.9868668 17.846639,13.750469 18.1182183,13.750469 L27.4295083,13.750469 C27.7010876,13.750469 27.9338698,13.9868668 27.9338698,14.2626642 C27.9338698,14.5384615 27.7010876,14.7748593 27.4295083,14.7748593 L27.4295083,14.7748593 Z M27.4295083,18.3996248 L18.1182183,18.3996248 C17.846639,18.3996248 17.6138568,18.163227 17.6138568,17.8874296 C17.6138568,17.6116323 17.846639,17.3752345 18.1182183,17.3752345 L27.4295083,17.3752345 C27.7010876,17.3752345 27.9338698,17.6116323 27.9338698,17.8874296 C27.9338698,18.163227 27.7010876,18.3996248 27.4295083,18.3996248 L27.4295083,18.3996248 Z M15.2472373,17.0206379 C15.2472373,17.8086304 14.6264846,18.3996248 13.8893408,18.3996248 L3.68571893,18.3996248 C2.90977811,18.3996248 2.32782248,17.7692308 2.32782248,17.0206379 L2.32782248,4.01876173 C2.32782248,3.23076923 2.94857515,2.63977486 3.68571893,2.63977486 L13.8893408,2.63977486 C14.6652817,2.63977486 15.2472373,3.27016886 15.2472373,4.01876173 L15.2472373,17.0206379 Z M28.9813899,0 L2.05624319,0 C0.931128994,0 0,0.945590994 0,2.08818011 L0,18.9118199 C0,20.054409 0.931128994,21 2.05624319,21 L28.9425929,21 C30.0677071,21 30.9988361,20.054409 30.9988361,18.9118199 L30.9988361,2.12757974 C31.0376331,0.945590994 30.1065041,0 28.9813899,0 L28.9813899,0 Z" id="Fill-5" fill="#02142E" mask="url(#mask-2)"></path>
                    </g>
                </g>
            </g>
        </g>
    </g>
</svg>