<?xml version="1.0" encoding="UTF-8"?>
<svg width="91px" height="53px" viewBox="0 0 91 53" version="1.1" xmlns="http://www.w3.org/2000/svg" xmlns:xlink="http://www.w3.org/1999/xlink">
    <title>Eos_logo</title>
    <g id="Page-1" stroke="none" stroke-width="1" fill="none" fill-rule="evenodd">
        <g id="03---My-Account" transform="translate(-147.000000, -8.000000)">
            <g id="Header" transform="translate(-3.000000, 0.000000)">
                <g id="Eos_logo" transform="translate(150.259961, 8.000000)">
                    <path d="M3.26170349,52.5789474 L3.26170349,51.9253187 L0.762313843,51.9253187 L0.762313843,49.7770868 L2.90762329,49.7770868 L2.90762329,49.1234581 L0.762313843,49.1234581 L0.762313843,47.1750617 L3.220047,47.1750617 L3.220047,46.5172697 L0,46.5172697 L0,52.5789474 L3.26170349,52.5789474 Z M5.98187256,52.6622122 C6.56784058,52.6622122 7.02467346,52.4998458 7.35237122,52.1751131 C7.68006897,51.8503803 7.84669495,51.4007504 7.85224915,50.8262233 L7.85224915,50.8262233 L7.85224915,46.5172697 L7.08576965,46.5172697 L7.08576965,50.7970806 C7.08576965,51.2050781 6.99898529,51.5096885 6.82541656,51.7109118 C6.65184784,51.9121351 6.3706665,52.0127467 5.98187256,52.0127467 C5.59585571,52.0127467 5.31606293,51.9121351 5.1424942,51.7109118 C4.96892548,51.5096885 4.88214111,51.2050781 4.88214111,50.7970806 L4.88214111,50.7970806 L4.88214111,46.5172697 L4.12399292,46.5172697 L4.12399292,50.8262233 C4.12954712,51.4146279 4.2906189,51.8677272 4.60720825,52.1855212 C4.92379761,52.5033152 5.38201904,52.6622122 5.98187256,52.6622122 Z M9.79344177,52.5789474 L9.79344177,50.1267989 L10.859848,50.1267989 L11.9387512,52.5789474 L12.7593842,52.5789474 L12.7593842,52.5289885 L11.584671,49.9519428 C11.8873749,49.8103927 12.1213455,49.6001491 12.2865829,49.321212 C12.4518204,49.0422749 12.5344391,48.7154605 12.5344391,48.3407689 C12.5344391,47.7440378 12.3816986,47.2909385 12.0762177,46.981471 C11.7707367,46.6720035 11.3208466,46.5172697 10.7265472,46.5172697 L10.7265472,46.5172697 L9.02696228,46.5172697 L9.02696228,52.5789474 L9.79344177,52.5789474 Z M10.7182159,49.4731702 L9.79344177,49.4731702 L9.79344177,47.1750617 L10.7098846,47.1750617 C11.4152679,47.1750617 11.7679596,47.5636308 11.7679596,48.3407689 C11.7679596,48.6849301 11.6728439,48.9597039 11.4826126,49.1650905 C11.2923813,49.370477 11.0375824,49.4731702 10.7182159,49.4731702 L10.7182159,49.4731702 Z M15.4670563,52.6622122 C16.1168976,52.6622122 16.6181641,52.438785 16.9708557,51.9919305 C17.3235474,51.5450761 17.4998932,50.9081003 17.4998932,50.0810033 L17.4998932,50.0810033 L17.4998932,48.9777447 C17.4915619,48.1617496 17.3089676,47.5337942 16.9521103,47.0938785 C16.595253,46.6539628 16.0974579,46.4340049 15.458725,46.4340049 C14.817215,46.4340049 14.317337,46.663677 13.9590912,47.1230212 C13.6008453,47.5823653 13.4217224,48.2172595 13.4217224,49.0277035 L13.4217224,49.0277035 L13.4217224,50.1684313 C13.4356079,50.9622225 13.6237564,51.5763004 13.9861679,52.0106651 C14.3485794,52.4450298 14.8422089,52.6622122 15.4670563,52.6622122 Z M15.4670563,51.983604 C15.0393829,51.983604 14.7179337,51.8212377 14.5027084,51.4965049 C14.2874832,51.1717722 14.1798706,50.6999383 14.1798706,50.0810033 L14.1798706,50.0810033 L14.1798706,48.9943976 C14.1826477,48.3782381 14.2916489,47.9119552 14.5068741,47.5955489 C14.7220993,47.2791427 15.0393829,47.1209396 15.458725,47.1209396 C15.8919525,47.1209396 16.2134018,47.2770611 16.4230728,47.5893041 C16.6327438,47.9015471 16.7375793,48.3782381 16.7375793,49.0193771 L16.7375793,49.0193771 L16.7375793,50.1559416 C16.729248,50.7748766 16.6223297,51.2342208 16.4168243,51.5339741 C16.211319,51.8337274 15.8947296,51.983604 15.4670563,51.983604 Z M19.4410858,52.5789474 L19.4410858,50.2059005 L20.6657867,50.2059005 C21.2239838,50.1947985 21.656517,50.0317383 21.9633865,49.7167198 C22.270256,49.4017013 22.4236908,48.9527652 22.4236908,48.3699116 C22.4236908,47.8092619 22.262619,47.3603259 21.9404755,47.0231034 C21.6183319,46.685881 21.1753845,46.5172697 20.6116333,46.5172697 L20.6116333,46.5172697 L18.678772,46.5172697 L18.678772,52.5789474 L19.4410858,52.5789474 Z M20.6116333,49.5522718 L19.4410858,49.5522718 L19.4410858,47.1750617 L20.615799,47.1750617 C20.9407196,47.1750617 21.1962128,47.2846937 21.3822784,47.5039576 C21.5683441,47.7232216 21.661377,48.0146484 21.661377,48.3782381 C21.661377,48.7557052 21.5711212,49.0457442 21.3906097,49.2483553 C21.2100983,49.4509663 20.9504395,49.5522718 20.6116333,49.5522718 L20.6116333,49.5522718 Z M26.6684875,52.5789474 L26.6684875,51.9253187 L24.1690979,51.9253187 L24.1690979,49.7770868 L26.3144073,49.7770868 L26.3144073,49.1234581 L24.1690979,49.1234581 L24.1690979,47.1750617 L26.6268311,47.1750617 L26.6268311,46.5172697 L23.4067841,46.5172697 L23.4067841,52.5789474 L26.6684875,52.5789474 Z M31.5089722,52.6622122 C32.1588135,52.6622122 32.66008,52.438785 33.0127716,51.9919305 C33.3654633,51.5450761 33.5418091,50.9081003 33.5418091,50.0810033 L33.5418091,50.0810033 L33.5418091,48.9777447 C33.5334778,48.1617496 33.3508835,47.5337942 32.9940262,47.0938785 C32.6371689,46.6539628 32.1393738,46.4340049 31.5006409,46.4340049 C30.8591309,46.4340049 30.3592529,46.663677 30.0010071,47.1230212 C29.6427612,47.5823653 29.4636383,48.2172595 29.4636383,49.0277035 L29.4636383,49.0277035 L29.4636383,50.1684313 C29.4775238,50.9622225 29.6656723,51.5763004 30.0280838,52.0106651 C30.3904953,52.4450298 30.8841248,52.6622122 31.5089722,52.6622122 Z M31.5089722,51.983604 C31.0812988,51.983604 30.7598495,51.8212377 30.5446243,51.4965049 C30.3293991,51.1717722 30.2217865,50.6999383 30.2217865,50.0810033 L30.2217865,50.0810033 L30.2217865,48.9943976 C30.2245636,48.3782381 30.3335648,47.9119552 30.54879,47.5955489 C30.7640152,47.2791427 31.0812988,47.1209396 31.5006409,47.1209396 C31.9338684,47.1209396 32.2553177,47.2770611 32.4649887,47.5893041 C32.6746597,47.9015471 32.7794952,48.3782381 32.7794952,49.0193771 L32.7794952,49.0193771 L32.7794952,50.1559416 C32.7711639,50.7748766 32.6642456,51.2342208 32.4587402,51.5339741 C32.2532349,51.8337274 31.9366455,51.983604 31.5089722,51.983604 Z M35.4871674,52.5789474 L35.4871674,47.9077919 L37.915741,52.5789474 L38.6822205,52.5789474 L38.6822205,46.5172697 L37.9240723,46.5172697 L37.9240723,51.2092414 L35.4871674,46.5172697 L34.7206879,46.5172697 L34.7206879,52.5789474 L35.4871674,52.5789474 Z M43.1477966,52.5789474 L43.1477966,51.9253187 L40.7692108,51.9253187 L40.7692108,46.5172697 L40.0027313,46.5172697 L40.0027313,52.5789474 L43.1477966,52.5789474 Z M44.8515472,52.5789474 L44.8515472,46.5172697 L44.0892334,46.5172697 L44.0892334,52.5789474 L44.8515472,52.5789474 Z M46.9552002,52.5789474 L46.9552002,47.9077919 L49.3837738,52.5789474 L50.1502533,52.5789474 L50.1502533,46.5172697 L49.3921051,46.5172697 L49.3921051,51.2092414 L46.9552002,46.5172697 L46.1887207,46.5172697 L46.1887207,52.5789474 L46.9552002,52.5789474 Z M54.7324677,52.5789474 L54.7324677,51.9253187 L52.233078,51.9253187 L52.233078,49.7770868 L54.3783875,49.7770868 L54.3783875,49.1234581 L52.233078,49.1234581 L52.233078,47.1750617 L54.6908112,47.1750617 L54.6908112,46.5172697 L51.4707642,46.5172697 L51.4707642,52.5789474 L54.7324677,52.5789474 Z M59.2980194,52.6622122 C59.8478851,52.6622122 60.2825012,52.5144171 60.6018677,52.2188271 C60.9212341,51.923237 61.0809174,51.5298109 61.0809174,51.0385485 C61.0809174,50.5722656 60.9524765,50.1947985 60.6955948,49.9061472 C60.4387131,49.6174959 60.011734,49.3746402 59.4146576,49.1775802 C59.0314178,49.041581 58.7481537,48.8875411 58.5648651,48.7154605 C58.3815765,48.5433799 58.2899323,48.3296669 58.2899323,48.0743215 C58.2899323,47.7634663 58.3746338,47.5219984 58.5440369,47.3499178 C58.7134399,47.1778372 58.9522705,47.0917969 59.2605286,47.0917969 C59.5993347,47.0917969 59.8589935,47.1944901 60.039505,47.3998766 C60.2200165,47.6052632 60.3102722,47.8953022 60.3102722,48.2699938 L60.3102722,48.2699938 L61.0767517,48.2699938 C61.0767517,47.9313836 61.00177,47.6205284 60.8518066,47.337428 C60.7018433,47.0543277 60.4880066,46.8329821 60.2102966,46.6733912 C59.9325867,46.5138004 59.6159973,46.4340049 59.2605286,46.4340049 C58.7412109,46.4340049 58.3211746,46.5894326 58.0004196,46.9002878 C57.6796646,47.2111431 57.5192871,47.6066509 57.5192871,48.0868113 C57.5192871,48.3643606 57.5755234,48.6106856 57.6879959,48.8257864 C57.8004684,49.0408871 57.9698715,49.2323962 58.1962051,49.4003135 C58.4225388,49.5682309 58.7495422,49.7285156 59.1772156,49.8811678 C59.6048889,50.0338199 59.90065,50.1906353 60.0644989,50.3516139 C60.2283478,50.5125925 60.3102722,50.7443462 60.3102722,51.046875 C60.3102722,51.3438528 60.2255707,51.578382 60.0561676,51.7504626 C59.8867645,51.9225432 59.6340485,52.0085835 59.2980194,52.0085835 C58.9369965,52.0085835 58.6516495,51.9045025 58.4419785,51.6963405 C58.2323074,51.4881785 58.1274719,51.1967516 58.1274719,50.82206 L58.1274719,50.82206 L57.3609924,50.82206 C57.3609924,51.1828742 57.4463882,51.5027498 57.6171799,51.7816869 C57.7879715,52.060624 58.0226364,52.2771125 58.3211746,52.4311523 C58.6197128,52.5851922 58.9453278,52.6622122 59.2980194,52.6622122 Z M65.3423767,52.5789474 L65.3423767,51.9253187 L62.8429871,51.9253187 L62.8429871,49.7770868 L64.9882965,49.7770868 L64.9882965,49.1234581 L62.8429871,49.1234581 L62.8429871,47.1750617 L65.3007202,47.1750617 L65.3007202,46.5172697 L62.0806732,46.5172697 L62.0806732,52.5789474 L65.3423767,52.5789474 Z M67.0836182,52.5789474 L67.0836182,50.1267989 L68.1500244,50.1267989 L69.2289276,52.5789474 L70.0495605,52.5789474 L70.0495605,52.5289885 L68.8748474,49.9519428 C69.1775513,49.8103927 69.4115219,49.6001491 69.5767593,49.321212 C69.7419968,49.0422749 69.8246155,48.7154605 69.8246155,48.3407689 C69.8246155,47.7440378 69.671875,47.2909385 69.366394,46.981471 C69.0609131,46.6720035 68.6110229,46.5172697 68.0167236,46.5172697 L68.0167236,46.5172697 L66.3171387,46.5172697 L66.3171387,52.5789474 L67.0836182,52.5789474 Z M68.0083923,49.4731702 L67.0836182,49.4731702 L67.0836182,47.1750617 L68.000061,47.1750617 C68.7054443,47.1750617 69.058136,47.5636308 69.058136,48.3407689 C69.058136,48.6849301 68.9630203,48.9597039 68.772789,49.1650905 C68.5825577,49.370477 68.3277588,49.4731702 68.0083923,49.4731702 L68.0083923,49.4731702 Z M72.9155273,52.5789474 L74.8025665,46.5172697 L73.965271,46.5172697 L72.5781097,51.4090769 L71.1992798,46.5172697 L70.3661499,46.5172697 L72.2490234,52.5789474 L72.9155273,52.5789474 Z M76.4188385,52.5789474 L76.4188385,46.5172697 L75.6565247,46.5172697 L75.6565247,52.5789474 L76.4188385,52.5789474 Z M79.6055603,52.6622122 C80.210968,52.6622122 80.6796036,52.4901316 81.011467,52.1459704 C81.3433304,51.8018092 81.5259247,51.3049959 81.5592499,50.6555304 L81.5592499,50.6555304 L80.7886047,50.6555304 C80.7469482,51.1662212 80.6386414,51.5200966 80.4636841,51.7171567 C80.2887268,51.9142167 80.0026855,52.0127467 79.6055603,52.0127467 C79.2084351,52.0127467 78.9064255,51.8489926 78.6995316,51.5214844 C78.4926376,51.1939762 78.3891907,50.72353 78.3891907,50.110146 L78.3891907,50.110146 L78.3891907,48.9985609 C78.3891907,48.3740748 78.5002747,47.9001593 78.7224426,47.5768144 C78.9446106,47.2534694 79.2625885,47.0917969 79.6763763,47.0917969 C80.0346222,47.0917969 80.3012238,47.1972656 80.476181,47.4082031 C80.6511383,47.6191406 80.7552795,47.9716283 80.7886047,48.4656661 L80.7886047,48.4656661 L81.5592499,48.4656661 C81.5314789,47.8134252 81.3572159,47.3117547 81.0364609,46.9606548 C80.7157059,46.6095549 80.2623444,46.4340049 79.6763763,46.4340049 C79.0404205,46.4340049 78.5384598,46.6629831 78.1704941,47.1209396 C77.8025284,47.578896 77.6185455,48.2019942 77.6185455,48.9902344 L77.6185455,48.9902344 L77.6185455,50.0893298 C77.6185455,50.8803454 77.7976685,51.506913 78.1559143,51.9690327 C78.5141602,52.4311523 78.9973755,52.6622122 79.6055603,52.6622122 Z M85.8540344,52.5789474 L85.8540344,51.9253187 L83.3546448,51.9253187 L83.3546448,49.7770868 L85.4999542,49.7770868 L85.4999542,49.1234581 L83.3546448,49.1234581 L83.3546448,47.1750617 L85.8123779,47.1750617 L85.8123779,46.5172697 L82.5923309,46.5172697 L82.5923309,52.5789474 L85.8540344,52.5789474 Z M88.4658966,52.6622122 C89.0157623,52.6622122 89.4503784,52.5144171 89.7697449,52.2188271 C90.0891113,51.923237 90.2487946,51.5298109 90.2487946,51.0385485 C90.2487946,50.5722656 90.1203537,50.1947985 89.863472,49.9061472 C89.6065903,49.6174959 89.1796112,49.3746402 88.5825348,49.1775802 C88.199295,49.041581 87.9160309,48.8875411 87.7327423,48.7154605 C87.5494537,48.5433799 87.4578094,48.3296669 87.4578094,48.0743215 C87.4578094,47.7634663 87.542511,47.5219984 87.7119141,47.3499178 C87.8813171,47.1778372 88.1201477,47.0917969 88.4284058,47.0917969 C88.7672119,47.0917969 89.0268707,47.1944901 89.2073822,47.3998766 C89.3878937,47.6052632 89.4781494,47.8953022 89.4781494,48.2699938 L89.4781494,48.2699938 L90.2446289,48.2699938 C90.2446289,47.9313836 90.1696472,47.6205284 90.0196838,47.337428 C89.8697205,47.0543277 89.6558838,46.8329821 89.3781738,46.6733912 C89.1004639,46.5138004 88.7838745,46.4340049 88.4284058,46.4340049 C87.9090881,46.4340049 87.4890518,46.5894326 87.1682968,46.9002878 C86.8475418,47.2111431 86.6871643,47.6066509 86.6871643,48.0868113 C86.6871643,48.3643606 86.7434006,48.6106856 86.8558731,48.8257864 C86.9683456,49.0408871 87.1377487,49.2323962 87.3640823,49.4003135 C87.590416,49.5682309 87.9174194,49.7285156 88.3450928,49.8811678 C88.7727661,50.0338199 89.0685272,50.1906353 89.2323761,50.3516139 C89.396225,50.5125925 89.4781494,50.7443462 89.4781494,51.046875 C89.4781494,51.3438528 89.3934479,51.578382 89.2240448,51.7504626 C89.0546417,51.9225432 88.8019257,52.0085835 88.4658966,52.0085835 C88.1048737,52.0085835 87.8195267,51.9045025 87.6098557,51.6963405 C87.4001846,51.4881785 87.2953491,51.1967516 87.2953491,50.82206 L87.2953491,50.82206 L86.5288696,50.82206 C86.5288696,51.1828742 86.6142654,51.5027498 86.7850571,51.7816869 C86.9558487,52.060624 87.1905136,52.2771125 87.4890518,52.4311523 C87.78759,52.5851922 88.113205,52.6622122 88.4658966,52.6622122 Z" id="EUROPEONLINESERVICES" fill="#414141" fill-rule="nonzero"></path>
                    <g id="Group-2" transform="translate(2.474118, 0.000000)">
                        <ellipse id="Oval" fill="#3B7580" cx="19.1953125" cy="19.1842105" rx="19.1953125" ry="19.1842105"></ellipse>
                        <ellipse id="Oval" fill="#00245B" cx="43.3671875" cy="19.1842105" rx="19.1953125" ry="19.1842105"></ellipse>
                        <ellipse id="Oval" fill="#E9B200" cx="66.1171875" cy="19.1842105" rx="19.1953125" ry="19.1842105"></ellipse>
                    </g>
                </g>
            </g>
        </g>
    </g>
</svg>