<?xml version="1.0" encoding="UTF-8"?>
<svg width="26px" height="24px" viewBox="0 0 26 24" version="1.1" xmlns="http://www.w3.org/2000/svg" xmlns:xlink="http://www.w3.org/1999/xlink">
    <title>Group 9</title>
    <defs>
        <polygon id="path-1" points="0 0 18.6605556 0 18.6605556 13.6941579 0 13.6941579"></polygon>
        <polygon id="path-3" points="0 0 9.77850535 0 9.77850535 9.72355801 0 9.72355801"></polygon>
    </defs>
    <g id="Contact" stroke="none" stroke-width="1" fill="none" fill-rule="evenodd">
        <g id="04---My-Shipments" transform="translate(-241.000000, -738.000000)">
            <g id="Group-Copy-6" transform="translate(233.000000, 733.000000)">
                <g id="Group-9" transform="translate(8.000000, 5.000000)">
                    <path d="M9.33038424,0 C12.3476586,0 14.7934068,2.43353657 14.7934068,5.4353101 C14.7934068,8.43708364 12.3476586,10.8706202 9.33038424,10.8706202 C6.31310992,10.8706202 3.86700688,8.43708364 3.86700688,5.4353101 C3.86700688,2.43353657 6.31310992,0 9.33038424,0" id="Fill-1" fill="#02142E"></path>
                    <g id="Group-5" transform="translate(0.000000, 10.305842)">
                        <mask id="mask-2" fill="white">
                            <use xlink:href="#path-1"></use>
                        </mask>
                        <g id="Clip-4"></g>
                        <path d="M13.4455136,0 C12.3457428,0.917649758 10.8912073,1.4823573 9.33024233,1.4823573 C7.76927737,1.4823573 6.31474184,0.952943979 5.21497107,0 C2.27042353,1.51765152 0.177311429,4.62354301 -7.09529525e-05,8.29414204 L-7.09529525e-05,11.3647393 C-7.09529525e-05,12.7059197 4.22162973,13.6941579 9.33024233,13.6941579 C14.4388549,13.6941579 18.6605556,12.6706255 18.6605556,11.3647393 L18.6605556,8.25884782 C18.4831732,4.62354301 16.3900611,1.51765152 13.4455136,0" id="Fill-3" fill="#02142E" mask="url(#mask-2)"></path>
                    </g>
                    <g id="Group-8" transform="translate(16.221495, 2.479384)">
                        <mask id="mask-4" fill="white">
                            <use xlink:href="#path-3"></use>
                        </mask>
                        <g id="Clip-7"></g>
                        <path d="M4.88715069,6.48531319 C4.00023878,6.48531319 3.25487802,5.74413454 3.25487802,4.86177901 C3.25487802,3.97942347 4.00023878,3.23824482 4.88715069,3.23824482 C5.7740626,3.23824482 6.51906861,3.97942347 6.51906861,4.86177901 C6.51906861,5.74413454 5.7740626,6.48531319 4.88715069,6.48531319 M9.21492605,4.12060035 L8.61218071,4.01471769 C8.36384538,3.97942347 8.11551004,3.76765814 8.04420233,3.52059859 C7.97324937,3.27353904 7.97324937,2.99118527 8.11551004,2.77941994 L8.43479833,2.25000662 C8.82503957,1.61471063 8.11551004,0.873531981 7.47693347,1.29706264 L6.94478632,1.61471063 C6.69645099,1.7205933 6.44776089,1.79118174 6.19942555,1.68529907 C5.95144498,1.57941641 5.73823136,1.36765108 5.70310965,1.12059153 L5.6321567,0.555883988 C5.45477432,-0.185294663 4.42560174,-0.185294663 4.24821935,0.555883988 L4.14178992,1.15588575 C4.10666821,1.4029453 3.89345459,1.65000485 3.64547402,1.7205933 C3.39713869,1.79118174 3.11332687,1.79118174 2.90011325,1.65000485 L2.36796611,1.33235686 C1.7297443,0.944120424 0.984738293,1.65000485 1.41010124,2.28530084 L1.7297443,2.81471416 C1.83581896,3.06177371 1.90712668,3.30883326 1.80069725,3.55589281 C1.69426782,3.80295236 1.4810542,4.01471769 1.23271886,4.05001191 L0.559020576,4.15589458 C-0.186340192,4.33236568 -0.186340192,5.35589811 0.559020576,5.53236921 L1.16212067,5.63825188 C1.41010124,5.6735461 1.65843658,5.88531143 1.7297443,6.13237098 C1.80069725,6.37943053 1.80069725,6.6617843 1.65843658,6.87354963 L1.33950306,7.40296295 C0.948907052,8.03825894 1.65843658,8.77943759 2.29701315,8.35590693 L2.8291603,8.03825894 C3.07749563,7.93237627 3.32618573,7.86178783 3.57452107,7.96767049 C3.8228564,8.07355316 4.03571526,8.28531849 4.07083697,8.53237804 L4.24821935,9.16767402 C4.42560174,9.90885267 5.45477432,9.90885267 5.6321567,9.16767402 L5.73823136,8.56767226 C5.7740626,8.32061271 5.98692146,8.07355316 6.2352568,8.00296471 C6.48359213,7.93237627 6.76740394,7.93237627 6.97990803,8.07355316 L7.51205518,8.39120115 C8.15063175,8.77943759 8.89599252,8.07355316 8.47027481,7.43825717 L8.15063175,6.90884385 C8.04420233,6.6617843 7.97324937,6.41472475 8.08003357,6.1676652 C8.15063175,5.92060565 8.39896709,5.70884032 8.64765719,5.6735461 L9.25075729,5.56766343 C9.96028681,5.35589811 9.96028681,4.33236568 9.21492605,4.12060035" id="Fill-6" fill="#02142E" mask="url(#mask-4)"></path>
                    </g>
                </g>
            </g>
        </g>
    </g>
</svg>