<?xml version="1.0" encoding="UTF-8"?>
<svg width="31px" height="26px" viewBox="0 0 31 26" version="1.1" xmlns="http://www.w3.org/2000/svg" xmlns:xlink="http://www.w3.org/1999/xlink">
    <title>Group 3</title>
    <defs>
        <polygon id="path-1" points="0 0 31 0 31 26 0 26"></polygon>
    </defs>
    <g id="Contact" stroke="none" stroke-width="1" fill="none" fill-rule="evenodd">
        <g id="04---My-Shipments" transform="translate(-235.000000, -488.000000)">
            <g id="Group-Copy-4" transform="translate(233.000000, 483.000000)">
                <g id="Group-3" transform="translate(2.000000, 5.000000)">
                    <mask id="mask-2" fill="white">
                        <use xlink:href="#path-1"></use>
                    </mask>
                    <g id="Clip-2"></g>
                    <path d="M15.9559521,8.94097411 L19.2240986,13.0073382 L26.0719099,10.8270159 L26.0719099,13.2558559 L25.3203684,14.3683785 C24.7566416,15.204186 23.9880979,15.7905514 23.0229277,16.0408603 C22.6908486,16.1262034 22.1659275,16.2020126 21.8197835,16.1544007 L20.7844581,16.0106407 L20.7844581,19.8867307 L15.9571383,21.2679945 L15.9571383,8.94155192 L15.9559521,8.94097411 Z M15.0431441,21.2675322 L4.92825959,18.3727432 L4.92825959,10.8259181 L11.7760144,13.0062404 L15.0442173,8.93987626 L15.0442173,21.2663766 L15.0431441,21.2675322 Z M15.4996611,6.90186945 L11.4598077,11.9284444 L0,8.27937738 L4.92792067,3.45105029 L15.5003389,6.90192723 L19.5401923,11.9284444 L31,8.27943516 L26.0720793,3.45105029 L15.4996611,6.90186945 Z M23.6578828,20.6734819 L25.2787384,21.9771452 L28.4132399,17.9778075 L29.122982,18.5621505 L25.4249798,23.2808086 L23.0942691,21.4072476 L23.6579958,20.6742908 L23.6578828,20.6734819 Z M26.0719664,26 C26.0719664,26 30.4476269,24.3352031 30.4476269,21.3161263 L30.4476269,17.0779782 C30.4476269,17.0779782 27.7923497,17.4458722 26.0719664,14.8976559 C24.3515831,17.44593 21.6972096,17.0779782 21.6972096,17.0779782 L21.6972096,21.3161263 C21.6972096,24.3340475 26.0719664,26 26.0719664,26 L26.0719664,26 Z M24.5697871,2.96083312 L15.499887,0 L6.42998695,2.96083312 L15.499887,5.92166624 L24.5697871,2.96083312 Z" id="Fill-1" fill="#00112D" mask="url(#mask-2)"></path>
                </g>
            </g>
        </g>
    </g>
</svg>