<?xml version="1.0" encoding="UTF-8"?>
<svg width="20px" height="27px" viewBox="0 0 20 27" version="1.1" xmlns="http://www.w3.org/2000/svg" xmlns:xlink="http://www.w3.org/1999/xlink">
    <title>Group 7</title>
    <g id="Contact" stroke="none" stroke-width="1" fill="none" fill-rule="evenodd">
        <g id="04---My-Shipments" transform="translate(-240.000000, -792.000000)" fill="#02142E">
            <g id="Group-Copy-7" transform="translate(233.000000, 788.000000)">
                <g id="Group-7" transform="translate(7.000000, 4.000000)">
                    <path d="M11.1690729,10.7913668 L12.1214745,10.7913668 C12.4240784,10.7913668 12.7275482,10.8766754 12.9872941,11.0899469 C13.5500768,11.0046383 14.0695686,10.8766754 14.5024784,10.6634039 C14.6323513,10.4927867 14.7622243,10.2795152 14.8488063,10.0662437 L14.8488063,7.9761831 C14.8488063,7.50698583 15.0215373,7.08044285 15.325007,6.73920846 C14.8920972,4.22260488 12.6405333,2.30316147 9.95692547,2.30316147 C7.27288469,2.30316147 5.0650447,4.22260488 4.58884391,6.73920846 C4.89188078,7.08044285 5.0650447,7.50698583 5.0650447,7.9761831 L5.0650447,10.108898 C5.97415528,11.8577242 7.79237646,13.0946989 9.91363449,13.0946989 L10.0002165,13.0946989 C9.78376155,12.8387731 9.65388861,12.540193 9.65388861,12.1989586 C9.78376155,11.4311812 10.3898353,10.7913668 11.1690729,10.7913668" id="Fill-1"></path>
                    <path d="M3.20335938,11.601969 L3.24665036,11.601969 C3.89601507,11.601969 4.45879781,11.0474632 4.45879781,10.4076487 L4.45879781,8.01900802 C4.45879781,7.54981074 4.19905193,7.16592206 3.76614212,6.95265057 C3.98259703,3.71092392 6.66663781,1.15166605 10.0000433,1.15166605 C13.3334488,1.15166605 16.0179225,3.71092392 16.1906535,6.95265057 C15.8014676,7.16592206 15.4979978,7.54981074 15.4979978,8.01900802 L15.4979978,10.4076487 C15.4979978,10.5782659 15.5412888,10.7062288 15.5850127,10.8341917 C14.8919241,11.3460433 13.8533734,11.6872776 12.6840841,11.7725862 C12.554644,11.5593148 12.3381891,11.4313519 12.0780103,11.4313519 L11.1256088,11.4313519 C10.73599,11.4313519 10.3896621,11.7725862 10.3896621,12.1564749 C10.3896621,12.5403636 10.692699,12.881598 11.1256088,12.881598 L12.0780103,12.881598 C12.3381891,12.881598 12.5975021,12.7109808 12.7273751,12.4977093 C14.0698284,12.4124007 15.2382519,11.9858577 16.0607805,11.3886976 C16.2343774,11.5166605 16.4508323,11.5593148 16.7101452,11.5593148 L16.7534362,11.5593148 C17.4028009,11.5593148 17.9660166,11.0048089 17.9660166,10.3649944 L17.9660166,7.97635372 C17.9660166,7.50715644 17.6625468,7.08061346 17.272928,6.90999627 C17.100197,3.07110945 13.8962315,0 9.95675231,0 C6.0172731,0 2.81374056,3.07110945 2.64057664,6.90999627 C2.25095781,7.08061346 1.94792095,7.50715644 1.94792095,7.97635372 L1.94792095,10.3649944 C1.99121193,11.0474632 2.51070369,11.601969 3.20335938,11.601969" id="Fill-3"></path>
                    <path d="M14.4158964,12.4975387 C13.24704,13.4785875 11.6885647,14.0757477 10.0002165,14.0757477 C8.31186822,14.0757477 6.75339293,13.5212418 5.58453646,12.4975387 C2.4242949,14.118402 0.173163921,17.402783 0,21.2847506 L0,24.5260507 C0,25.9336426 4.50226195,27 10.0002165,27 C15.498171,27 20,25.9336426 20,24.5260507 L20,21.2416698 C19.827269,17.402783 17.576138,14.118402 14.4158964,12.4975387" id="Fill-5"></path>
                </g>
            </g>
        </g>
    </g>
</svg>