<?xml version="1.0" encoding="UTF-8"?>
<svg width="15px" height="14px" viewBox="0 0 15 14" version="1.1" xmlns="http://www.w3.org/2000/svg" xmlns:xlink="http://www.w3.org/1999/xlink">
    <title>11. Saved cards</title>
    <g id="Contact" stroke="none" stroke-width="1" fill="none" fill-rule="evenodd">
        <g id="04---My-Shipments" transform="translate(-986.000000, -766.000000)" fill="#02142E">
            <g id="11.-Saved-cards" transform="translate(986.343597, 766.530133)">
                <path d="M0.741503625,3.823613 L10.7571197,1.50577193 L10.6217736,0.871832488 C10.5831032,0.693537021 10.4090867,0.574673376 10.2350702,0.614294591 L0.838179456,2.77365081 C0.66416296,2.81327202 0.548151962,2.99156749 0.586822295,3.16986295 C0.644827794,3.38777964 0.683498126,3.60569632 0.741503625,3.823613 L0.741503625,3.823613 Z M0.644827794,2.2189538 L10.1577296,0.0199763669 C10.6024384,-0.0790766705 11.0664824,0.198271834 11.1631582,0.673726413 L12.1685869,5.19054492 L11.5691967,5.19054492 L11.1244879,3.15005235 L1.10887178,5.46789342 L1.7275971,8.26118908 L1.7856026,8.51872697 C1.80493777,8.61778001 1.9016136,8.67721183 1.99828943,8.65740122 L2.07563009,8.63759062 L2.07563009,9.23190884 L2.05629493,9.23190884 C1.68892677,9.31115127 1.30222345,9.07342398 1.22488278,8.69702244 L0.0261024744,3.24910538 C-0.0319030243,3.0113781 0.00676730818,2.79346141 0.142113472,2.59535534 C0.238789303,2.39724926 0.432140965,2.25857501 0.644827794,2.2189538 L0.644827794,2.2189538 L0.644827794,2.2189538 Z M3.11972907,5.34902978 C2.65568508,5.34902978 2.26898176,5.74524193 2.26898176,6.22069651 L2.26898176,11.8270984 C2.26898176,12.302553 2.65568508,12.6987651 3.11972907,12.6987651 L12.8646528,12.6987651 C13.3286968,12.6987651 13.7154002,12.302553 13.7154002,11.8270984 L13.7154002,6.2008859 C13.7154002,5.72543132 13.3286968,5.32921917 12.8646528,5.32921917 L3.11972907,5.34902978 L3.11972907,5.34902978 L3.11972907,5.34902978 Z M12.6713012,7.86497693 C12.6713012,7.48857538 12.6713012,7.11217384 12.6713012,6.71596169 C12.6713012,6.63671926 12.6132957,6.57728744 12.535955,6.57728744 C11.7045429,6.57728744 10.8731307,6.57728744 10.0417186,6.57728744 C9.96437791,6.57728744 9.90637241,6.63671926 9.90637241,6.71596169 C9.90637241,7.09236323 9.90637241,7.46876478 9.90637241,7.86497693 C9.90637241,7.94421936 9.96437791,8.00365118 10.0417186,8.00365118 C10.8731307,8.00365118 11.7045429,8.00365118 12.535955,8.00365118 C12.5939605,7.98384057 12.6713012,7.92440875 12.6713012,7.86497693 L12.6713012,7.86497693 Z M10.8151252,11.3120226 C10.7377846,11.3120226 10.6797791,11.2525908 10.6797791,11.1733484 L10.6797791,10.9158105 C10.6797791,10.836568 10.7377846,10.7771362 10.8151252,10.7771362 L12.5166199,10.7771362 C12.5939605,10.7771362 12.651966,10.836568 12.651966,10.9158105 L12.651966,11.1733484 C12.651966,11.2525908 12.5939605,11.3120226 12.5166199,11.3120226 L10.8151252,11.3120226 L10.8151252,11.3120226 L10.8151252,11.3120226 Z M8.43689978,11.3120226 C8.35955912,11.3120226 8.30155362,11.2525908 8.30155362,11.1733484 L8.30155362,10.9158105 C8.30155362,10.836568 8.35955912,10.7771362 8.43689978,10.7771362 L10.1383944,10.7771362 C10.2157351,10.7771362 10.2737406,10.836568 10.2737406,10.9158105 L10.2737406,11.1733484 C10.2737406,11.2525908 10.2157351,11.3120226 10.1383944,11.3120226 L8.43689978,11.3120226 L8.43689978,11.3120226 Z M6.05867434,11.3120226 C5.98133367,11.3120226 5.92332817,11.2525908 5.92332817,11.1733484 L5.92332817,10.9158105 C5.92332817,10.836568 5.98133367,10.7771362 6.05867434,10.7771362 L7.76016896,10.7771362 C7.83750963,10.7771362 7.89551513,10.836568 7.89551513,10.9158105 L7.89551513,11.1733484 C7.89551513,11.2525908 7.83750963,11.3120226 7.76016896,11.3120226 L6.05867434,11.3120226 L6.05867434,11.3120226 Z M3.68044889,11.3120226 C3.60310823,11.3120226 3.54510273,11.2525908 3.54510273,11.1733484 L3.54510273,10.9158105 C3.54510273,10.836568 3.60310823,10.7771362 3.68044889,10.7771362 L5.38194352,10.7771362 C5.45928418,10.7771362 5.51728968,10.836568 5.51728968,10.9158105 L5.51728968,11.1733484 C5.51728968,11.2525908 5.45928418,11.3120226 5.38194352,11.3120226 L3.68044889,11.3120226 Z" id="Shape"></path>
            </g>
        </g>
    </g>
</svg>