<?xml version="1.0" encoding="UTF-8"?>
<svg width="24px" height="35px" viewBox="0 0 24 35" version="1.1" xmlns="http://www.w3.org/2000/svg" xmlns:xlink="http://www.w3.org/1999/xlink">
    <title>Group 8</title>
    <defs>
        <polygon id="path-1" points="-5.84740612e-16 0 24 0 24 35 -5.84740612e-16 35"></polygon>
    </defs>
    <g id="Contact" stroke="none" stroke-width="1" fill="none" fill-rule="evenodd">
        <g id="04---My-Shipments" transform="translate(-238.000000, -593.000000)">
            <g id="Group-Copy-4" transform="translate(233.000000, 593.000000)">
                <g id="Group-8" transform="translate(5.000000, 0.000000)">
                    <g id="Group-3">
                        <mask id="mask-2" fill="white">
                            <use xlink:href="#path-1"></use>
                        </mask>
                        <g id="Clip-2"></g>
                        <path d="M12.0023184,20.1431921 C7.43174198,20.1431921 3.71814862,16.4643435 3.71814862,11.9365298 C3.71814862,7.40871604 7.43174198,3.68944049 12.0023184,3.68944049 C16.5728949,3.68944049 20.2864883,7.36828913 20.2864883,11.8961028 C20.2864883,16.4239166 16.5728949,20.1431921 12.0023184,20.1431921 M11.3901877,0.0105918499 C5.22807119,0.334007115 0.167790125,5.42779754 0.00455525129,11.5726876 C-0.0770621853,14.5238519 0.943155772,17.1920278 2.65712194,19.3346539 C5.14645376,22.4879528 7.10527224,26.0050938 8.49276866,29.7647962 C8.98247328,31.0584573 9.43136918,32.3116915 9.83945636,33.4840718 C10.5332046,35.5054172 13.4306236,35.5054172 14.1651805,33.4840718 C14.5732677,32.3116915 15.0221636,31.0584573 15.5118682,29.7647962 C16.8993646,26.0455207 18.735757,22.5279754 21.2658975,19.4559347 C22.9798637,17.3941624 24.0000816,14.7664133 24.0000816,11.8961028 C24.0000816,5.14480918 18.3276698,-0.272396507 11.3901877,0.0105918499" id="Fill-1" fill="#02142E" mask="url(#mask-2)"></path>
                    </g>
                    <path d="M12.0023184,10.0767707 C12.1247446,10.0767707 12.206362,10.1171976 12.2879795,10.1576245 L13.0225364,10.5618936 L13.0225364,7.65115621 L10.900483,7.65115621 L10.900483,10.5618936 L11.63504,10.1576245 C11.7982748,10.1171976 11.8798923,10.0767707 12.0023184,10.0767707" id="Fill-4" fill="#02142E"></path>
                    <path d="M15.6751031,7.69162354 L14.2059892,7.69162354 L14.2059892,11.6534605 C14.2059892,11.8555951 14.0835631,12.0173027 13.9611369,12.0981565 C13.8795195,12.1385834 13.7570933,12.1790103 13.7162846,12.1790103 C13.6754759,12.1790103 13.512241,12.1385834 13.4714323,12.0981565 L12.0023184,11.2896184 L10.5332046,12.0981565 C10.3699697,12.1790103 10.1659261,12.1790103 10.0026912,12.0981565 C9.83945636,11.9768758 9.75783893,11.8555951 9.75783893,11.6534605 L9.75783893,7.69162354 L8.32953379,7.69162354 C7.79902045,7.69162354 7.35012455,8.09589263 7.35012455,8.66186934 L7.35012455,15.2110285 C7.35012455,15.7365783 7.79902045,16.1812743 8.32953379,16.1812743 L15.6751031,16.1812743 C16.2056164,16.1812743 16.6545123,15.7770052 16.6545123,15.2110285 L16.6545123,8.62144243 C16.6545123,8.09589263 16.2056164,7.69162354 15.6751031,7.69162354" id="Fill-6" fill="#02142E"></path>
                </g>
            </g>
        </g>
    </g>
</svg>