<?xml version="1.0" encoding="UTF-8"?>
<svg width="26px" height="26px" viewBox="0 0 26 26" version="1.1" xmlns="http://www.w3.org/2000/svg" xmlns:xlink="http://www.w3.org/1999/xlink">
    <title>Group 21</title>
    <defs>
        <polygon id="path-1" points="0 0 5.2 0 5.2 5.19999208 0 5.19999208"></polygon>
        <polygon id="path-3" points="0 0 5.2 0 5.2 5.19999208 0 5.19999208"></polygon>
    </defs>
    <g id="Contact" stroke="none" stroke-width="1" fill="none" fill-rule="evenodd">
        <g id="04---My-Shipments" transform="translate(-237.000000, -432.000000)">
            <g id="Group-Copy-3" transform="translate(233.000000, 428.000000)">
                <g id="Group-21" transform="translate(4.000000, 4.000000)">
                    <path d="M0.866666667,5.20000198 C1.34526476,5.20000198 1.73333333,4.81232945 1.73333333,4.33333498 L1.73333333,1.73333399 L4.33333333,1.73333399 C4.81193143,1.73333399 5.2,1.34566147 5.2,0.866666997 C5.2,0.387672529 4.81193143,0 4.33333333,0 L0.866666667,0 C0.388068571,0 0,0.387672529 0,0.866666997 L0,4.33333498 C0,4.81232945 0.388068571,5.20000198 0.866666667,5.20000198" id="Fill-1" fill="#00112D"></path>
                    <path d="M25.1333333,0 L21.6666667,0 C21.1876724,0 20.8,0.387672529 20.8,0.866666997 C20.8,1.34566147 21.1876724,1.73333399 21.6666667,1.73333399 L24.2666667,1.73333399 L24.2666667,4.33333498 C24.2666667,4.81232945 24.654339,5.20000198 25.1333333,5.20000198 C25.6123276,5.20000198 26,4.81232945 26,4.33333498 L26,0.866666997 C26,0.387672529 25.6123276,0 25.1333333,0" id="Fill-3" fill="#00112D"></path>
                    <g id="Group-7" transform="translate(0.000000, 20.800008)">
                        <mask id="mask-2" fill="white">
                            <use xlink:href="#path-1"></use>
                        </mask>
                        <g id="Clip-6"></g>
                        <path d="M4.33333333,3.46666799 L1.73333333,3.46666799 L1.73333333,0.866666997 C1.73333333,0.387672529 1.34526476,0 0.866666667,0 C0.388068571,0 0,0.387672529 0,0.866666997 L0,4.33333498 C0,4.81232945 0.388068571,5.20000198 0.866666667,5.20000198 L4.33333333,5.20000198 C4.81193143,5.20000198 5.2,4.81232945 5.2,4.33333498 C5.2,3.85434052 4.81193143,3.46666799 4.33333333,3.46666799" id="Fill-5" fill="#00112D" mask="url(#mask-2)"></path>
                    </g>
                    <g id="Group-10" transform="translate(20.800000, 20.800008)">
                        <mask id="mask-4" fill="white">
                            <use xlink:href="#path-3"></use>
                        </mask>
                        <g id="Clip-9"></g>
                        <path d="M4.33333333,0 C3.85433905,0 3.46666667,0.387672529 3.46666667,0.866666997 L3.46666667,3.46666799 L0.866666667,3.46666799 C0.387672381,3.46666799 0,3.85434052 0,4.33333498 C0,4.81232945 0.387672381,5.20000198 0.866666667,5.20000198 L4.33333333,5.20000198 C4.81232762,5.20000198 5.2,4.81232945 5.2,4.33333498 L5.2,0.866666997 C5.2,0.387672529 4.81232762,0 4.33333333,0" id="Fill-8" fill="#00112D" mask="url(#mask-4)"></path>
                    </g>
                    <path d="M3.46666667,4.33333498 C3.46666667,4.81232945 3.85473524,5.20000198 4.33333333,5.20000198 L16.4666667,5.20000198 C16.945661,5.20000198 17.3333333,4.81232945 17.3333333,4.33333498 C17.3333333,3.85434052 16.945661,3.46666799 16.4666667,3.46666799 L4.33333333,3.46666799 C3.85473524,3.46666799 3.46666667,3.85434052 3.46666667,4.33333498" id="Fill-11" fill="#00112D"></path>
                    <path d="M21.6666667,12.133338 L4.33333333,12.133338 C3.85473524,12.133338 3.46666667,12.5210105 3.46666667,13.000005 C3.46666667,13.4789994 3.85473524,13.8666719 4.33333333,13.8666719 L21.6666667,13.8666719 C22.145661,13.8666719 22.5333333,13.4789994 22.5333333,13.000005 C22.5333333,12.5210105 22.145661,12.133338 21.6666667,12.133338" id="Fill-13" fill="#00112D"></path>
                    <path d="M4.33333333,22.5333419 L21.6666667,22.5333419 C22.145661,22.5333419 22.5333333,22.1456694 22.5333333,21.6666749 C22.5333333,21.1876805 22.145661,20.8000079 21.6666667,20.8000079 L4.33333333,20.8000079 C3.85473524,20.8000079 3.46666667,21.1876805 3.46666667,21.6666749 C3.46666667,22.1456694 3.85473524,22.5333419 4.33333333,22.5333419" id="Fill-15" fill="#00112D"></path>
                    <path d="M4.33333333,18.2000069 L15.6,18.2000069 C16.0789943,18.2000069 16.4666667,17.8123344 16.4666667,17.3333399 C16.4666667,16.8543455 16.0789943,16.4666729 15.6,16.4666729 L4.33333333,16.4666729 C3.85473524,16.4666729 3.46666667,16.8543455 3.46666667,17.3333399 C3.46666667,17.8123344 3.85473524,18.2000069 4.33333333,18.2000069" id="Fill-17" fill="#00112D"></path>
                    <path d="M21.6666667,7.80000297 L4.33333333,7.80000297 C3.85473524,7.80000297 3.46666667,8.1876755 3.46666667,8.66666997 C3.46666667,9.14566444 3.85473524,9.53333697 4.33333333,9.53333697 L21.6666667,9.53333697 C22.145661,9.53333697 22.5333333,9.14566444 22.5333333,8.66666997 C22.5333333,8.1876755 22.145661,7.80000297 21.6666667,7.80000297" id="Fill-19" fill="#00112D"></path>
                </g>
            </g>
        </g>
    </g>
</svg>