<?xml version="1.0" encoding="UTF-8"?>
<svg width="43px" height="43px" viewBox="0 0 43 43" version="1.1" xmlns="http://www.w3.org/2000/svg" xmlns:xlink="http://www.w3.org/1999/xlink">
    <title>noun-warehouse-4495844</title>
    <defs>
        <polygon id="path-1" points="0 0 3.65957447 0 3.65957447 3.65957447 0 3.65957447"></polygon>
        <polygon id="path-3" points="0 0 3.65957447 0 3.65957447 3.65957447 0 3.65957447"></polygon>
        <polygon id="path-5" points="0 0 3.65957447 0 3.65957447 3.65957447 0 3.65957447"></polygon>
    </defs>
    <g id="Contact" stroke="none" stroke-width="1" fill="none" fill-rule="evenodd">
        <g id="04---My-Shipments" transform="translate(-904.000000, -657.000000)">
            <g id="noun-warehouse-4495844" transform="translate(904.000000, 657.000000)">
                <path d="M42.1041306,41.202214 L41.053587,41.202214 L41.053587,14.949129 L42.1015519,14.949129 C42.4996088,14.949129 42.8495682,14.6861398 42.961685,14.3036882 C43.0737934,13.9215699 42.9197672,13.5111295 42.584757,13.2959604 L22.078818,0.141504104 C21.7847423,-0.0469511672 21.4087876,-0.0472761331 21.1131231,0.141178638 L0.572246382,13.2964681 C0.237235356,13.5112873 0.0832099745,13.9214027 0.195318425,14.304196 C0.307426875,14.6866393 0.657386249,14.9496367 1.05545152,14.9496367 L2.10341639,14.9496367 L2.10341639,41.2027218 L0.895902654,41.2027218 C0.400693918,41.2027218 0,41.6043714 0,42.1001278 C0,42.5958426 0.400652325,42.9975339 0.895902654,42.9975339 C30.1978256,43.0027417 39.8589337,42.9981848 42.1040973,42.9975339 C42.5993061,42.9975339 43,42.5958842 43,42.1001278 C43,41.604413 42.5993477,41.2027218 42.1040973,41.2027218 L42.1041306,41.202214 Z M21.595696,1.96215518 L39.0404264,13.1543169 L4.11852356,13.1543169 L21.595696,1.96215518 Z M39.2616985,14.949129 L39.2616985,18.6729891 L3.89475586,18.6729891 L3.89475586,14.949129 L39.2616985,14.949129 Z M3.89475586,20.4677179 L39.2616985,20.4677179 L39.2616985,41.202214 L37.1164401,41.202214 L37.1164401,23.0032858 C37.1164401,22.507571 36.7157877,22.1058798 36.2205374,22.1058798 L6.78468661,22.1058798 C6.28947787,22.1058798 5.88878395,22.5075294 5.88878395,23.0032858 L5.88878395,41.202214 L3.89425675,41.2025394 L3.89475586,20.4677179 Z M35.3253834,41.202214 L32.9380566,41.202214 L32.9380566,34.5203301 C32.9380566,34.0246154 32.5374042,33.6229241 32.0421539,33.6229241 L26.4963751,33.6229241 L26.4963751,26.9286249 C26.4963751,26.4329101 26.0957227,26.0312188 25.6004724,26.0312188 L17.5562315,26.0312188 C17.0610228,26.0312188 16.6603289,26.4328684 16.6603289,26.9286249 L16.6603289,33.6229241 L11.11455,33.6229241 C10.6193413,33.6229241 10.2186474,34.0245737 10.2186474,34.5203301 L10.2186474,41.202214 L7.68083881,41.202214 L7.68083881,23.9006919 L35.3248843,23.9006919 L35.3253834,41.202214 Z M15.1338838,37.2224639 C15.6290925,37.2224639 16.0297864,36.8208143 16.0297864,36.3250579 L16.0297864,35.4175695 L18.2640529,35.4175695 L18.2640529,41.2021307 L12.0105359,41.2021307 L12.0105359,35.4175695 L14.2379811,35.4175695 L14.2379811,36.3250579 C14.2379811,36.8204477 14.6386334,37.2224639 15.1338838,37.2224639 L15.1338838,37.2224639 Z M21.578144,29.8029906 C22.0733527,29.8029906 22.4740467,29.401341 22.4740467,28.9055846 L22.4740467,27.8259476 L24.7047361,27.8259476 L24.7047361,33.6228408 L18.4522174,33.6228408 L18.4522174,27.8259476 L20.6823245,27.8259476 L20.6823245,28.9055846 C20.6823245,29.4012994 21.0829769,29.8029906 21.5782272,29.8029906 L21.578144,29.8029906 Z M20.055775,35.4176529 L23.1010953,35.4176529 L23.1010953,41.202214 L20.055775,41.202214 L20.055775,35.4176529 Z M24.8928175,35.4176529 L27.1255034,35.4176529 L27.1255034,36.3251412 C27.1255034,36.820856 27.5261557,37.2225473 28.021406,37.2225473 C28.5166563,37.2225473 28.9173087,36.8208976 28.9173087,36.3251412 L28.9173087,35.4176529 L31.1464176,35.4176529 L31.1464176,41.202214 L24.8929006,41.202214 L24.8928175,35.4176529 Z" id="Shape" fill="#00112D" fill-rule="nonzero"></path>
                <g id="Group-10" transform="translate(17.518017, 7.319149)">
                    <g id="Group-3">
                        <mask id="mask-2" fill="white">
                            <use xlink:href="#path-1"></use>
                        </mask>
                        <g id="Clip-2"></g>
                        <path d="M3.65957447,1.82978929 C3.65957447,2.8403531 2.84034869,3.65957858 1.8297845,3.65957858 C0.819220302,3.65957858 -5.47619973e-06,2.8403531 -5.47619973e-06,1.82978929 C-5.47619973e-06,0.819225472 0.819220302,0 1.8297845,0 C2.84034869,0 3.65957447,0.819225472 3.65957447,1.82978929" id="Fill-1" fill="#3A7682" mask="url(#mask-2)"></path>
                    </g>
                    <g id="Group-6" transform="translate(2.744681, 0.000000)">
                        <mask id="mask-4" fill="white">
                            <use xlink:href="#path-3"></use>
                        </mask>
                        <g id="Clip-5"></g>
                        <path d="M3.65957447,1.82978929 C3.65957447,2.8403531 2.84034992,3.65957858 1.82978723,3.65957858 C0.819224552,3.65957858 0,2.8403531 0,1.82978929 C0,0.819225472 0.819224552,0 1.82978723,0 C2.84034992,0 3.65957447,0.819225472 3.65957447,1.82978929" id="Fill-4" fill="#212C56" mask="url(#mask-4)"></path>
                    </g>
                    <g id="Group-9" transform="translate(4.574468, 0.000000)">
                        <mask id="mask-6" fill="white">
                            <use xlink:href="#path-5"></use>
                        </mask>
                        <g id="Clip-8"></g>
                        <path d="M3.65958268,1.82978929 C3.65958268,2.8403531 2.84035936,3.65957858 1.82979819,3.65957858 C0.819223326,3.65957858 0,2.8403531 0,1.82978929 C0,0.819225472 0.819223326,0 1.82979819,0 C2.84035936,0 3.65958268,0.819225472 3.65958268,1.82978929" id="Fill-7" fill="#E9B105" mask="url(#mask-6)"></path>
                    </g>
                </g>
            </g>
        </g>
    </g>
</svg>